<svg width="113" height="28" viewBox="0 0 113 28" fill="none" xmlns="http://www.w3.org/2000/svg">
<g opacity="0.6" >
<path d="M112.966 1.94232C112.749 2.45492 112.351 2.607 111.82 2.60472C108.882 2.59162 105.94 2.59845 103 2.59845H102.274C102.268 2.8371 102.257 3.0541 102.257 3.26484C102.257 10.9349 102.257 18.6036 102.257 26.271C102.257 26.4561 102.267 26.6424 102.252 26.8263C102.243 27.0699 102.141 27.3007 101.967 27.47C101.793 27.6393 101.561 27.7339 101.319 27.7339C101.077 27.7339 100.845 27.6393 100.671 27.47C100.497 27.3007 100.395 27.0699 100.387 26.8263C100.371 26.6424 100.379 26.4567 100.379 26.271V2.59845H99.739C96.8172 2.59845 93.8955 2.59845 90.9741 2.59845C90.7906 2.60676 90.6066 2.60162 90.4238 2.58308C89.9289 2.50789 89.5577 2.03459 89.6034 1.55787C89.6492 1.08115 90.0238 0.741124 90.5391 0.72119C90.6312 0.717203 90.7227 0.72119 90.8148 0.72119C97.8151 0.72119 104.816 0.717772 111.816 0.710938C112.325 0.710938 112.705 0.832823 112.966 1.27594V1.94232Z" fill="#A7DBEE"/>
<path d="M82.3159 16.0682C82.338 15.9297 82.3531 15.7902 82.3611 15.6501C82.3611 14.1123 82.3752 12.5745 82.3537 11.0367C82.3542 10.6862 82.2818 10.3395 82.1413 10.0189C81.7639 9.22494 81.0576 8.96465 80.2265 8.97433C78.7929 8.99028 77.3595 9.00604 75.9263 9.02161C75.2833 9.02787 74.6398 9.03129 73.9968 9.02161C73.3222 9.01477 73.1426 8.83137 73.1341 8.1741C73.1216 7.21098 73.1945 7.13694 74.1686 7.13694C76.2088 7.13694 78.249 7.14548 80.2892 7.13295C81.2198 7.12669 82.0718 7.33287 82.8069 7.93033C83.6849 8.64513 84.1889 9.5661 84.2024 10.7086C84.2245 12.6167 84.2199 14.5247 84.2024 16.4338C84.1956 17.3713 83.6064 17.9363 82.6605 17.9392C80.3627 17.9466 78.0654 17.942 75.7675 17.942H65.7394C65.7131 18.0266 65.6942 18.1133 65.6829 18.2012C65.6738 19.7572 65.6365 21.3144 65.6716 22.8716C65.6839 23.5075 65.8984 24.1227 66.2836 24.6266C66.6688 25.1304 67.2043 25.4963 67.8112 25.6704C68.2175 25.7828 68.6374 25.8375 69.0587 25.8327C73.6725 25.8441 78.2867 25.8465 82.9012 25.8401C83.0668 25.8401 83.2323 25.8333 83.3973 25.8447C83.8459 25.876 84.1555 26.1568 84.2295 26.5891C84.3002 27.0014 84.0917 27.4434 83.7131 27.5972C83.5249 27.6679 83.3252 27.7025 83.1244 27.6991C78.1799 27.7044 73.2358 27.7044 68.292 27.6991C65.9682 27.6929 64.0709 25.9198 63.8528 23.5943C63.8274 23.3187 63.8206 23.0396 63.8201 22.7622C63.8178 20.7425 63.8178 18.7229 63.8201 16.7032V16.0682H82.3159Z" fill="white"/>
<path d="M38.2644 7.14663C39.1645 7.14663 40.0656 7.12384 40.9651 7.15175C42.616 7.20301 43.7839 8.02659 44.4432 9.53365C45.2506 11.3779 46.0094 13.2443 46.7897 15.1005C48.0564 18.1157 49.3237 21.1306 50.5916 24.1451C50.6481 24.2812 50.7046 24.4179 50.7656 24.5523C51.1651 25.4312 51.8594 25.8822 52.8036 25.9136C53.698 25.9438 54.4048 25.5667 54.8856 24.7967C54.9994 24.607 55.0966 24.4076 55.176 24.2009C57.0552 19.5396 58.9323 14.8778 60.8073 10.2154C61.4469 8.62064 62.5797 7.61139 64.2442 7.23377C64.5979 7.15403 64.9731 7.14606 65.3392 7.14435C67.0297 7.13524 68.7202 7.13429 70.4106 7.1415C71.1367 7.1415 71.2632 7.28332 71.2638 8.03343C71.2697 8.16294 71.267 8.29271 71.2559 8.42187C71.2141 8.73512 71.0265 8.9134 70.7124 8.94415C70.5852 8.95668 70.4553 8.94814 70.327 8.94814C68.8202 8.94814 67.3128 8.97434 65.807 8.94074C64.3668 8.90941 63.3159 9.51029 62.6961 10.8055C62.1696 11.9036 61.7017 13.0313 61.2305 14.1556C59.7163 17.7677 58.2097 21.3831 56.7105 25.0017C56.2501 26.1123 55.5376 26.9593 54.4093 27.4081C52.3307 28.2351 50.0497 27.2885 49.1339 25.1868C48.4384 23.5966 47.7892 21.9853 47.1202 20.382C45.7966 17.2107 44.4726 14.0402 43.1483 10.8704C43.0764 10.6803 42.9915 10.4955 42.894 10.3174C42.442 9.55244 41.7945 9.06889 40.8951 9.03642C39.9956 9.00396 39.095 9.0256 38.1949 9.0256C37.2209 9.0256 36.2474 9.03756 35.2733 9.0256C34.6349 9.01763 34.345 8.72373 34.3326 8.12399C34.3185 7.42913 34.5778 7.15289 35.288 7.14549C36.2796 7.1358 37.2723 7.14549 38.2644 7.14549V7.14663Z" fill="white"/>
<path d="M20.4263 27.6074H18.5646V26.9473C18.5646 21.8144 18.5646 16.6816 18.5646 11.5487C18.5646 10.4261 17.9499 9.52223 16.947 9.22719C16.5843 9.12069 16.1865 9.0979 15.8046 9.09733C12.0921 9.08822 8.37933 9.08689 4.66615 9.09335C4.42747 9.09332 4.189 9.10758 3.95199 9.13606C2.89375 9.26706 2.08297 10.0474 1.92308 11.1022C1.89553 11.3415 1.88609 11.5825 1.89483 11.8232C1.89483 16.8445 1.89483 21.8659 1.89483 26.8875V27.5858H0.0772244C0.0647944 27.4582 0.0388044 27.3169 0.0388044 27.1763C0.0365444 21.8224 0.0365444 16.4672 0.0388044 11.1107C0.0444544 9.05462 1.74567 7.20071 3.78193 7.17508C8.06406 7.12154 12.3468 7.14717 16.6289 7.16084C18.4499 7.16653 20.4144 8.8285 20.4229 11.1694C20.433 15.1164 20.4263 19.0635 20.4263 23.0099C20.4263 24.3442 20.4263 25.6785 20.4263 27.0128V27.6074Z" fill="white"/>
<path d="M42.5475 17.3714C42.491 18.461 42.5125 19.5608 42.3673 20.6379C41.9192 23.9578 39.1281 26.8797 35.8511 27.5033C35.1833 27.6222 34.5071 27.6877 33.829 27.6992C32.7273 27.7306 31.6255 27.7141 30.5215 27.7061C26.3693 27.6759 23.2042 24.7848 22.3539 21.2558C22.2028 20.5883 22.1197 19.907 22.1058 19.2225C22.0668 18.0378 22.0911 16.8514 22.0951 15.6656C22.1092 11.3774 25.154 7.81825 29.3666 7.21338C30.1068 7.10687 30.8707 7.1456 31.6232 7.15642C32.086 7.16155 32.3012 7.42411 32.3301 7.90083C32.3351 7.9931 32.3335 8.08594 32.3301 8.17878C32.3142 8.72783 32.0702 8.9961 31.5255 9.024C31.1402 9.04394 30.7537 9.03369 30.3678 9.02913C27.6705 8.99609 24.6088 11.1747 24.0652 14.5254C23.9971 14.9827 23.9627 15.4446 23.9624 15.9071C23.9477 16.9819 23.9517 18.0566 23.959 19.1308C23.9687 20.6715 24.5002 22.1626 25.4656 23.3571C26.431 24.5515 27.7723 25.3776 29.2672 25.6984C29.681 25.7854 30.1022 25.8313 30.5249 25.8357C31.7187 25.8533 32.9137 25.8567 34.1081 25.8385C36.9727 25.7958 39.4508 23.9823 40.3056 21.2689C40.4892 20.6698 40.592 20.0486 40.6113 19.4219C40.6565 18.0891 40.6113 16.754 40.6293 15.4201C40.6446 14.203 40.2723 13.1294 39.5383 12.1737C39.4711 12.0859 39.3965 12.0028 39.3378 11.9088C38.9807 11.3358 39.2637 10.7156 39.9265 10.6319C40.3994 10.5721 40.7932 10.7139 41.0763 11.1251C41.9339 12.369 42.4814 13.72 42.4888 15.2584C42.4927 15.9624 42.4888 16.6663 42.4888 17.3703L42.5475 17.3714Z" fill="white"/>
<path d="M87.4615 13.8446C87.533 16.455 87.6048 19.0655 87.6767 21.676C87.7208 23.3049 87.7603 24.9344 87.8078 26.5639C87.8208 27.0065 87.6948 27.3727 87.2891 27.5857C86.6716 27.9092 85.9834 27.5088 85.949 26.7883C85.8981 25.7335 85.8733 24.6781 85.8461 23.6227C85.7392 19.4938 85.6343 15.3649 85.5314 11.236C85.4715 8.79202 85.4184 6.34804 85.3619 3.9035C85.3399 2.95974 85.2981 2.01541 85.293 1.07108C85.289 0.416661 85.745 0.0458791 86.3733 0.139287C86.5566 0.163757 86.7278 0.245278 86.863 0.372487C86.9982 0.499697 87.0907 0.666257 87.1275 0.848956C87.1424 0.940242 87.149 1.0327 87.1473 1.12519L87.4762 13.6224C87.4762 13.6965 87.4762 13.7705 87.4762 13.8446H87.4615Z" fill="white"/>
</g>
<defs>
<clipPath id="clip0_1820_3386">
<rect width="113" height="27.8406" fill="white"/>
</clipPath>
</defs>
</svg>
