<svg width="12" height="14" viewBox="0 0 12 14" fill="none" xmlns="http://www.w3.org/2000/svg">
<path d="M9.25039 6.8C9.74002 6.50184 10.1532 6.09342 10.4571 5.60729C10.7609 5.12116 10.9469 4.57077 11.0004 4C11.0097 3.48388 10.9172 2.971 10.7282 2.49063C10.5392 2.01027 10.2575 1.57184 9.899 1.20039C9.54055 0.828938 9.11244 0.531741 8.63911 0.325776C8.16578 0.119811 7.65651 0.00911107 7.14039 0H0.650391V14H7.65039C8.14154 13.9948 8.62685 13.8929 9.07862 13.7001C9.53038 13.5073 9.93974 13.2274 10.2833 12.8764C10.6269 12.5253 10.898 12.1101 11.0811 11.6543C11.2642 11.1985 11.3557 10.7112 11.3504 10.22V10.1C11.3507 9.40711 11.1533 8.72852 10.7813 8.14395C10.4093 7.55939 9.87821 7.09315 9.25039 6.8ZM2.65039 2H6.85039C7.27656 1.98681 7.69657 2.10428 8.05407 2.33665C8.41156 2.56902 8.68943 2.90517 8.85039 3.3C9.01326 3.82779 8.96059 4.39859 8.70387 4.88765C8.44716 5.37672 8.00729 5.74428 7.48039 5.91C7.27577 5.96996 7.06361 6.00027 6.85039 6H2.65039V2ZM7.25039 12H2.65039V8H7.25039C7.67656 7.98681 8.09657 8.10428 8.45407 8.33665C8.81156 8.56902 9.08943 8.90517 9.25039 9.3C9.41326 9.82779 9.36059 10.3986 9.10388 10.8877C8.84716 11.3767 8.40729 11.7443 7.88039 11.91C7.67577 11.97 7.46361 12.0003 7.25039 12Z" fill="white" fill-opacity="0.8"/>
</svg>