<svg width="6" height="14" viewBox="0 0 6 14" fill="none" xmlns="http://www.w3.org/2000/svg">
    <path
      d="M2.76055 4H4.76055L2.56055 14H0.560547L2.76055 4ZM4.44055 0C4.24276 0 4.04943 0.0586491 3.88498 0.16853C3.72053 0.278412 3.59236 0.434591 3.51667 0.617317C3.44098 0.800043 3.42118 1.00111 3.45976 1.19509C3.49835 1.38907 3.59359 1.56725 3.73344 1.70711C3.87329 1.84696 4.05147 1.9422 4.24546 1.98079C4.43944 2.01937 4.6405 1.99957 4.82323 1.92388C5.00596 1.84819 5.16214 1.72002 5.27202 1.55557C5.3819 1.39112 5.44055 1.19778 5.44055 1C5.44055 0.734784 5.33519 0.48043 5.14765 0.292893C4.96012 0.105357 4.70576 0 4.44055 0Z"
      fill="white"
      fill-opacity="0.8"
    />
  </svg>