<svg width="18" height="14" viewBox="0 0 18 14" fill="none" xmlns="http://www.w3.org/2000/svg">
<path d="M0 7.20281H18V8.70281H13.6342C13.8711 9.20003 13.9906 9.74499 13.9836 10.2957C13.9977 10.8182 13.8855 11.3364 13.6567 11.8063C13.428 12.2763 13.0893 12.6842 12.6694 12.9954C11.6579 13.7071 10.4378 14.0606 9.20251 13.9999C8.29996 14.006 7.4062 13.8223 6.57916 13.4609C5.82387 13.1475 5.16917 12.6328 4.68652 11.9727C4.24212 11.3425 4.00762 10.5883 4.01636 9.81725V9.70387H4.30359V9.70277H4.64508V9.70387H6.02V9.81721C6.00433 10.1686 6.07382 10.5186 6.22253 10.8373C6.37125 11.1561 6.59479 11.4341 6.87413 11.6479C7.55154 12.1302 8.372 12.3696 9.20249 12.3272C9.93562 12.3751 10.6645 12.1834 11.2792 11.781C11.507 11.6125 11.6901 11.3907 11.8124 11.135C11.9346 10.8793 11.9923 10.5976 11.9804 10.3144C11.9964 10.0408 11.9459 9.7675 11.8332 9.51771C11.7205 9.26793 11.5491 9.04913 11.3335 8.88002C11.2451 8.81599 11.1533 8.75681 11.0585 8.70277H0V7.20281ZM13.3447 2.05968C12.9232 1.40469 12.3271 0.880458 11.6236 0.546066C10.8394 0.172475 9.97928 -0.0144724 9.11072 -0.000133624C7.8996 -0.0521115 6.70883 0.323908 5.74719 1.062C5.33435 1.38084 5.00134 1.79135 4.77448 2.26107C4.54762 2.73078 4.43313 3.24683 4.44006 3.76842C4.43656 4.26271 4.54659 4.75121 4.76166 5.19628H7.35834C7.27496 5.14263 7.17297 5.09051 7.10565 5.03564C6.90219 4.88555 6.73702 4.68956 6.62358 4.4636C6.51014 4.23765 6.45164 3.98811 6.45282 3.73528C6.43773 3.44667 6.49242 3.15867 6.61226 2.89568C6.73209 2.63269 6.91354 2.40246 7.14124 2.22448C7.71733 1.82494 8.41088 1.6304 9.11072 1.67205C9.87165 1.62367 10.6231 1.86226 11.2167 2.34075C11.465 2.57454 11.6594 2.85955 11.7865 3.176C11.9136 3.49245 11.9703 3.83276 11.9527 4.17333V4.28674H13.9559V4.17333C13.9592 3.42472 13.7471 2.69097 13.3447 2.05968Z" fill="white" fill-opacity="0.8"/>
</svg>