<svg width="18" height="12" viewBox="0 0 18 12" fill="none" xmlns="http://www.w3.org/2000/svg">
<path d="M12 2V10H2V2H12ZM14 4.5V1C14 0.734784 13.8946 0.48043 13.7071 0.292893C13.5196 0.105357 13.2652 0 13 0H1C0.734784 0 0.48043 0.105357 0.292893 0.292893C0.105357 0.48043 0 0.734784 0 1V11C0 11.2652 0.105357 11.5196 0.292893 11.7071C0.48043 11.8946 0.734784 12 1 12H13C13.2652 12 13.5196 11.8946 13.7071 11.7071C13.8946 11.5196 14 11.2652 14 11V7.5L16.29 9.79C16.4299 9.93103 16.6086 10.0272 16.8033 10.0663C16.9981 10.1054 17.2 10.0855 17.3835 10.0094C17.5669 9.9332 17.7235 9.80413 17.8333 9.63861C17.9431 9.47309 18.0012 9.27862 18 9.08V2.91C18.0012 2.71138 17.9431 2.51691 17.8333 2.35139C17.7235 2.18587 17.5669 2.0568 17.3835 1.98063C17.2 1.90446 16.9981 1.88465 16.8033 1.92372C16.6086 1.96279 16.4299 2.05897 16.29 2.2L14 4.5Z" fill="white" fill-opacity="0.8"/>
</svg>
