<svg width="468" height="279" viewBox="0 0 468 279" fill="none" xmlns="http://www.w3.org/2000/svg">
<path d="M147.583 207.308H121.866V249H91.7334V207.308H5.36133V184.188L92.123 58.5918H121.866V181.98H147.583V207.308ZM91.7334 181.98V134.833C91.7334 130.937 91.7767 126.997 91.8633 123.014C92.0365 118.944 92.2096 115.048 92.3828 111.324C92.556 107.601 92.7292 104.181 92.9023 101.063C93.0755 97.8597 93.2054 95.2188 93.292 93.1406H92.2529C90.6077 96.6042 88.7894 100.154 86.7979 103.791C84.8063 107.341 82.6849 110.805 80.4336 114.182L33.6758 181.98H91.7334ZM292.922 153.926C292.922 169.252 291.71 182.976 289.285 195.099C286.947 207.134 283.224 217.352 278.115 225.751C273.007 234.15 266.339 240.558 258.113 244.974C249.887 249.39 239.93 251.598 228.24 251.598C213.607 251.598 201.528 247.744 192.003 240.038C182.478 232.245 175.421 221.075 170.832 206.528C166.243 191.895 163.948 174.361 163.948 153.926C163.948 133.491 166.026 116 170.183 101.453C174.425 86.8197 181.266 75.6064 190.704 67.8135C200.142 60.0205 212.654 56.124 228.24 56.124C242.96 56.124 255.083 60.0205 264.607 67.8135C274.219 75.5199 281.319 86.6898 285.908 101.323C290.584 115.87 292.922 133.404 292.922 153.926ZM194.73 153.926C194.73 169.945 195.77 183.323 197.848 194.06C200.012 204.797 203.562 212.849 208.498 218.218C213.434 223.5 220.014 226.141 228.24 226.141C236.466 226.141 243.047 223.5 247.982 218.218C252.918 212.936 256.468 204.926 258.633 194.189C260.884 183.452 262.01 170.031 262.01 153.926C262.01 137.993 260.927 124.659 258.763 113.922C256.598 103.185 253.048 95.1322 248.112 89.7637C243.177 84.3086 236.553 81.5811 228.24 81.5811C219.928 81.5811 213.304 84.3086 208.368 89.7637C203.519 95.1322 200.012 103.185 197.848 113.922C195.77 124.659 194.73 137.993 194.73 153.926ZM452.028 207.308H426.312V249H396.179V207.308H309.807V184.188L396.568 58.5918H426.312V181.98H452.028V207.308ZM396.179 181.98V134.833C396.179 130.937 396.222 126.997 396.309 123.014C396.482 118.944 396.655 115.048 396.828 111.324C397.001 107.601 397.174 104.181 397.348 101.063C397.521 97.8597 397.651 95.2188 397.737 93.1406H396.698C395.053 96.6042 393.235 100.154 391.243 103.791C389.252 107.341 387.13 110.805 384.879 114.182L338.121 181.98H396.179Z" fill="#17191F"/>
<mask id="path-2-outside-1_3252_99891" maskUnits="userSpaceOnUse" x="11" y="38" width="458" height="206" fill="black">
<rect fill="white" x="11" y="38" width="458" height="206"/>
<path d="M158.583 194.308H132.866V236H102.733V194.308H16.3613V171.188L103.123 45.5918H132.866V168.98H158.583V194.308ZM102.733 168.98V121.833C102.733 117.937 102.777 113.997 102.863 110.014C103.036 105.944 103.21 102.048 103.383 98.3242C103.556 94.6009 103.729 91.1807 103.902 88.0635C104.076 84.8597 104.205 82.2188 104.292 80.1406H103.253C101.608 83.6042 99.7894 87.1543 97.7979 90.791C95.8063 94.3411 93.6849 97.8047 91.4336 101.182L44.6758 168.98H102.733ZM303.922 140.926C303.922 156.252 302.71 169.976 300.285 182.099C297.947 194.134 294.224 204.352 289.115 212.751C284.007 221.15 277.339 227.558 269.113 231.974C260.887 236.39 250.93 238.598 239.24 238.598C224.607 238.598 212.528 234.744 203.003 227.038C193.478 219.245 186.421 208.075 181.832 193.528C177.243 178.895 174.948 161.361 174.948 140.926C174.948 120.491 177.026 103 181.183 88.4531C185.425 73.8197 192.266 62.6064 201.704 54.8135C211.142 47.0205 223.654 43.124 239.24 43.124C253.96 43.124 266.083 47.0205 275.607 54.8135C285.219 62.5199 292.319 73.6898 296.908 88.3232C301.584 102.87 303.922 120.404 303.922 140.926ZM205.73 140.926C205.73 156.945 206.77 170.323 208.848 181.06C211.012 191.797 214.562 199.849 219.498 205.218C224.434 210.5 231.014 213.141 239.24 213.141C247.466 213.141 254.047 210.5 258.982 205.218C263.918 199.936 267.468 191.926 269.633 181.189C271.884 170.452 273.01 157.031 273.01 140.926C273.01 124.993 271.927 111.659 269.763 100.922C267.598 90.1849 264.048 82.1322 259.112 76.7637C254.177 71.3086 247.553 68.5811 239.24 68.5811C230.928 68.5811 224.304 71.3086 219.368 76.7637C214.519 82.1322 211.012 90.1849 208.848 100.922C206.77 111.659 205.73 124.993 205.73 140.926ZM463.028 194.308H437.312V236H407.179V194.308H320.807V171.188L407.568 45.5918H437.312V168.98H463.028V194.308ZM407.179 168.98V121.833C407.179 117.937 407.222 113.997 407.309 110.014C407.482 105.944 407.655 102.048 407.828 98.3242C408.001 94.6009 408.174 91.1807 408.348 88.0635C408.521 84.8597 408.651 82.2188 408.737 80.1406H407.698C406.053 83.6042 404.235 87.1543 402.243 90.791C400.252 94.3411 398.13 97.8047 395.879 101.182L349.121 168.98H407.179Z"/>
</mask>
<path d="M158.583 194.308H132.866V236H102.733V194.308H16.3613V171.188L103.123 45.5918H132.866V168.98H158.583V194.308ZM102.733 168.98V121.833C102.733 117.937 102.777 113.997 102.863 110.014C103.036 105.944 103.21 102.048 103.383 98.3242C103.556 94.6009 103.729 91.1807 103.902 88.0635C104.076 84.8597 104.205 82.2188 104.292 80.1406H103.253C101.608 83.6042 99.7894 87.1543 97.7979 90.791C95.8063 94.3411 93.6849 97.8047 91.4336 101.182L44.6758 168.98H102.733ZM303.922 140.926C303.922 156.252 302.71 169.976 300.285 182.099C297.947 194.134 294.224 204.352 289.115 212.751C284.007 221.15 277.339 227.558 269.113 231.974C260.887 236.39 250.93 238.598 239.24 238.598C224.607 238.598 212.528 234.744 203.003 227.038C193.478 219.245 186.421 208.075 181.832 193.528C177.243 178.895 174.948 161.361 174.948 140.926C174.948 120.491 177.026 103 181.183 88.4531C185.425 73.8197 192.266 62.6064 201.704 54.8135C211.142 47.0205 223.654 43.124 239.24 43.124C253.96 43.124 266.083 47.0205 275.607 54.8135C285.219 62.5199 292.319 73.6898 296.908 88.3232C301.584 102.87 303.922 120.404 303.922 140.926ZM205.73 140.926C205.73 156.945 206.77 170.323 208.848 181.06C211.012 191.797 214.562 199.849 219.498 205.218C224.434 210.5 231.014 213.141 239.24 213.141C247.466 213.141 254.047 210.5 258.982 205.218C263.918 199.936 267.468 191.926 269.633 181.189C271.884 170.452 273.01 157.031 273.01 140.926C273.01 124.993 271.927 111.659 269.763 100.922C267.598 90.1849 264.048 82.1322 259.112 76.7637C254.177 71.3086 247.553 68.5811 239.24 68.5811C230.928 68.5811 224.304 71.3086 219.368 76.7637C214.519 82.1322 211.012 90.1849 208.848 100.922C206.77 111.659 205.73 124.993 205.73 140.926ZM463.028 194.308H437.312V236H407.179V194.308H320.807V171.188L407.568 45.5918H437.312V168.98H463.028V194.308ZM407.179 168.98V121.833C407.179 117.937 407.222 113.997 407.309 110.014C407.482 105.944 407.655 102.048 407.828 98.3242C408.001 94.6009 408.174 91.1807 408.348 88.0635C408.521 84.8597 408.651 82.2188 408.737 80.1406H407.698C406.053 83.6042 404.235 87.1543 402.243 90.791C400.252 94.3411 398.13 97.8047 395.879 101.182L349.121 168.98H407.179Z" fill="url(#paint0_linear_3252_99891)"/>
<path d="M158.583 194.308V199.308H163.583V194.308H158.583ZM132.866 194.308V189.308H127.866V194.308H132.866ZM132.866 236V241H137.866V236H132.866ZM102.733 236H97.7334V241H102.733V236ZM102.733 194.308H107.733V189.308H102.733V194.308ZM16.3613 194.308H11.3613V199.308H16.3613V194.308ZM16.3613 171.188L12.2475 168.347L11.3613 169.629V171.188H16.3613ZM103.123 45.5918V40.5918H100.5L99.0092 42.75L103.123 45.5918ZM132.866 45.5918H137.866V40.5918H132.866V45.5918ZM132.866 168.98H127.866V173.98H132.866V168.98ZM158.583 168.98H163.583V163.98H158.583V168.98ZM102.733 168.98V173.98H107.733V168.98H102.733ZM102.863 110.014L97.8678 109.801L97.8656 109.853L97.8645 109.905L102.863 110.014ZM103.902 88.0635L108.895 88.3408L108.895 88.3334L103.902 88.0635ZM104.292 80.1406L109.288 80.3488L109.505 75.1406H104.292V80.1406ZM103.253 80.1406V75.1406H100.093L98.7365 77.9953L103.253 80.1406ZM97.7979 90.791L102.159 93.2373L102.171 93.215L102.183 93.1926L97.7979 90.791ZM91.4336 101.182L95.5497 104.02L95.572 103.988L95.5938 103.955L91.4336 101.182ZM44.6758 168.98L40.5597 166.142L35.1537 173.98H44.6758V168.98ZM158.583 189.308H132.866V199.308H158.583V189.308ZM127.866 194.308V236H137.866V194.308H127.866ZM132.866 231H102.733V241H132.866V231ZM107.733 236V194.308H97.7334V236H107.733ZM102.733 189.308H16.3613V199.308H102.733V189.308ZM21.3613 194.308V171.188H11.3613V194.308H21.3613ZM20.4752 174.03L107.237 48.4336L99.0092 42.75L12.2475 168.347L20.4752 174.03ZM103.123 50.5918H132.866V40.5918H103.123V50.5918ZM127.866 45.5918V168.98H137.866V45.5918H127.866ZM132.866 173.98H158.583V163.98H132.866V173.98ZM153.583 168.98V194.308H163.583V168.98H153.583ZM107.733 168.98V121.833H97.7334V168.98H107.733ZM107.733 121.833C107.733 117.974 107.776 114.07 107.862 110.122L97.8645 109.905C97.7771 113.923 97.7334 117.899 97.7334 121.833H107.733ZM107.859 110.226C108.032 106.163 108.205 102.273 108.377 98.5565L98.3882 98.0919C98.2147 101.822 98.0412 105.725 97.8678 109.801L107.859 110.226ZM108.377 98.5565C108.55 94.8455 108.722 91.4405 108.895 88.3408L98.91 87.7861C98.7359 90.9209 98.562 94.3564 98.3882 98.0919L108.377 98.5565ZM108.895 88.3334C109.069 85.1187 109.2 82.4553 109.288 80.3488L99.2963 79.9325C99.2109 81.9822 99.0822 84.6007 98.9096 87.7936L108.895 88.3334ZM104.292 75.1406H103.253V85.1406H104.292V75.1406ZM98.7365 77.9953C97.1357 81.3656 95.3615 84.8302 93.4124 88.3894L102.183 93.1926C104.217 89.4784 106.08 85.8428 107.769 82.2859L98.7365 77.9953ZM93.4371 88.3448C91.508 91.7836 89.4535 95.138 87.2733 98.4081L95.5938 103.955C97.9163 100.471 100.105 96.8987 102.159 93.2373L93.4371 88.3448ZM87.3175 98.343L40.5597 166.142L48.7918 171.819L95.5497 104.02L87.3175 98.343ZM44.6758 173.98H102.733V163.98H44.6758V173.98ZM300.285 182.099L295.382 181.118L295.38 181.132L295.377 181.145L300.285 182.099ZM289.115 212.751L284.843 210.153L289.115 212.751ZM203.003 227.038L199.837 230.908L199.847 230.917L199.858 230.925L203.003 227.038ZM181.832 193.528L177.061 195.025L177.064 195.033L181.832 193.528ZM181.183 88.4531L176.38 87.0608L176.378 87.0701L176.375 87.0795L181.183 88.4531ZM201.704 54.8135L198.521 50.9579L201.704 54.8135ZM275.607 54.8135L272.441 58.6833L272.46 58.6989L272.48 58.7144L275.607 54.8135ZM296.908 88.3232L292.137 89.8194L292.143 89.8364L292.148 89.8533L296.908 88.3232ZM208.848 181.06L203.939 182.01L203.942 182.029L203.946 182.048L208.848 181.06ZM219.498 205.218L215.817 208.602L215.831 208.617L215.845 208.632L219.498 205.218ZM269.633 181.189L264.739 180.163L264.735 180.182L264.731 180.201L269.633 181.189ZM269.763 100.922L264.861 101.91L269.763 100.922ZM259.112 76.7637L255.405 80.1182L255.418 80.133L255.431 80.1477L259.112 76.7637ZM219.368 76.7637L215.66 73.4091L215.658 73.4122L219.368 76.7637ZM208.848 100.922L203.946 99.9337L203.942 99.9527L203.939 99.9718L208.848 100.922ZM298.922 140.926C298.922 155.997 297.729 169.384 295.382 181.118L305.188 183.079C307.69 170.568 308.922 156.506 308.922 140.926H298.922ZM295.377 181.145C293.125 192.738 289.579 202.368 284.843 210.153L293.387 215.349C298.869 206.336 302.769 195.531 305.193 183.052L295.377 181.145ZM284.843 210.153C280.172 217.832 274.147 223.597 266.748 227.568L271.478 236.379C280.532 231.519 287.841 224.468 293.387 215.349L284.843 210.153ZM266.748 227.568C259.41 231.508 250.309 233.598 239.24 233.598V243.598C251.551 243.598 262.364 241.272 271.478 236.379L266.748 227.568ZM239.24 233.598C225.52 233.598 214.618 230.004 206.148 223.151L199.858 230.925C210.437 239.485 223.693 243.598 239.24 243.598V233.598ZM206.169 223.168C197.56 216.124 190.967 205.866 186.6 192.024L177.064 195.033C181.875 210.284 189.397 222.366 199.837 230.908L206.169 223.168ZM186.603 192.032C182.206 178.013 179.948 161.011 179.948 140.926H169.948C169.948 161.71 172.279 179.776 177.061 195.025L186.603 192.032ZM179.948 140.926C179.948 120.804 181.997 103.802 185.99 89.8267L176.375 87.0795C172.055 102.198 169.948 120.177 169.948 140.926H179.948ZM185.985 89.8455C190.017 75.9395 196.395 65.681 204.888 58.669L198.521 50.9579C188.137 59.5318 180.834 71.6998 176.38 87.0608L185.985 89.8455ZM204.888 58.669C213.208 51.799 224.492 48.124 239.24 48.124V38.124C222.817 38.124 209.076 42.2421 198.521 50.9579L204.888 58.669ZM239.24 48.124C253.042 48.124 263.977 51.7576 272.441 58.6833L278.774 50.9437C268.189 42.2834 254.879 38.124 239.24 38.124V48.124ZM272.48 58.7144C281.146 65.6632 287.772 75.9001 292.137 89.8194L301.679 86.827C296.866 71.4795 289.291 59.3765 278.735 50.9126L272.48 58.7144ZM292.148 89.8533C296.621 103.769 298.922 120.757 298.922 140.926H308.922C308.922 120.051 306.547 101.971 301.668 86.7932L292.148 89.8533ZM200.73 140.926C200.73 157.131 201.779 170.852 203.939 182.01L213.757 180.109C211.76 169.793 210.73 156.758 210.73 140.926H200.73ZM203.946 182.048C206.207 193.262 210.028 202.305 215.817 208.602L223.179 201.834C219.097 197.394 215.817 190.331 213.749 180.071L203.946 182.048ZM215.845 208.632C221.86 215.069 229.839 218.141 239.24 218.141V208.141C232.189 208.141 227.007 205.93 223.151 201.804L215.845 208.632ZM239.24 218.141C248.641 218.141 256.62 215.069 262.636 208.632L255.329 201.804C251.474 205.93 246.291 208.141 239.24 208.141V218.141ZM262.636 208.632C268.45 202.409 272.274 193.389 274.534 182.178L264.731 180.201C262.662 190.464 259.386 197.463 255.329 201.804L262.636 208.632ZM274.526 182.216C276.873 171.024 278.01 157.232 278.01 140.926H268.01C268.01 156.831 266.895 169.881 264.739 180.163L274.526 182.216ZM278.01 140.926C278.01 124.797 276.917 111.106 274.664 99.9337L264.861 101.91C266.938 112.212 268.01 125.19 268.01 140.926H278.01ZM274.664 99.9337C272.403 88.7191 268.582 79.6767 262.793 73.3797L255.431 80.1477C259.513 84.5876 262.793 91.6507 264.861 101.91L274.664 99.9337ZM262.82 73.4091C256.808 66.7644 248.762 63.5811 239.24 63.5811V73.5811C246.343 73.5811 251.545 75.8528 255.405 80.1182L262.82 73.4091ZM239.24 63.5811C229.718 63.5811 221.672 66.7644 215.66 73.4091L223.076 80.1182C226.935 75.8528 232.137 73.5811 239.24 73.5811V63.5811ZM215.658 73.4122C209.974 79.7053 206.204 88.7348 203.946 99.9337L213.749 101.91C215.821 91.635 219.065 84.559 223.079 80.1151L215.658 73.4122ZM203.939 99.9718C201.779 111.128 200.73 124.805 200.73 140.926H210.73C210.73 125.182 211.76 112.19 213.757 101.872L203.939 99.9718ZM463.028 194.308V199.308H468.028V194.308H463.028ZM437.312 194.308V189.308H432.312V194.308H437.312ZM437.312 236V241H442.312V236H437.312ZM407.179 236H402.179V241H407.179V236ZM407.179 194.308H412.179V189.308H407.179V194.308ZM320.807 194.308H315.807V199.308H320.807V194.308ZM320.807 171.188L316.693 168.347L315.807 169.629V171.188H320.807ZM407.568 45.5918V40.5918H404.945L403.454 42.75L407.568 45.5918ZM437.312 45.5918H442.312V40.5918H437.312V45.5918ZM437.312 168.98H432.312V173.98H437.312V168.98ZM463.028 168.98H468.028V163.98H463.028V168.98ZM407.179 168.98V173.98H412.179V168.98H407.179ZM407.309 110.014L402.313 109.801L402.311 109.853L402.31 109.905L407.309 110.014ZM408.348 88.0635L413.34 88.3408L413.34 88.3334L408.348 88.0635ZM408.737 80.1406L413.733 80.3488L413.95 75.1406H408.737V80.1406ZM407.698 80.1406V75.1406H404.538L403.182 77.9953L407.698 80.1406ZM402.243 90.791L406.604 93.2373L406.616 93.215L406.629 93.1926L402.243 90.791ZM395.879 101.182L399.995 104.02L400.017 103.988L400.039 103.955L395.879 101.182ZM349.121 168.98L345.005 166.142L339.599 173.98H349.121V168.98ZM463.028 189.308H437.312V199.308H463.028V189.308ZM432.312 194.308V236H442.312V194.308H432.312ZM437.312 231H407.179V241H437.312V231ZM412.179 236V194.308H402.179V236H412.179ZM407.179 189.308H320.807V199.308H407.179V189.308ZM325.807 194.308V171.188H315.807V194.308H325.807ZM324.921 174.03L411.682 48.4336L403.454 42.75L316.693 168.347L324.921 174.03ZM407.568 50.5918H437.312V40.5918H407.568V50.5918ZM432.312 45.5918V168.98H442.312V45.5918H432.312ZM437.312 173.98H463.028V163.98H437.312V173.98ZM458.028 168.98V194.308H468.028V168.98H458.028ZM412.179 168.98V121.833H402.179V168.98H412.179ZM412.179 121.833C412.179 117.974 412.222 114.07 412.307 110.122L402.31 109.905C402.222 113.923 402.179 117.899 402.179 121.833H412.179ZM412.304 110.226C412.477 106.163 412.65 102.273 412.823 98.5565L402.834 98.0919C402.66 101.822 402.487 105.725 402.313 109.801L412.304 110.226ZM412.823 98.5565C412.995 94.8455 413.168 91.4405 413.34 88.3408L403.355 87.7861C403.181 90.9209 403.007 94.3564 402.834 98.0919L412.823 98.5565ZM413.34 88.3334C413.514 85.1187 413.645 82.4553 413.733 80.3488L403.742 79.9325C403.656 81.9822 403.528 84.6007 403.355 87.7936L413.34 88.3334ZM408.737 75.1406H407.698V85.1406H408.737V75.1406ZM403.182 77.9953C401.581 81.3656 399.807 84.8302 397.858 88.3894L406.629 93.1926C408.663 89.4784 410.525 85.8428 412.215 82.2859L403.182 77.9953ZM397.882 88.3448C395.953 91.7836 393.899 95.138 391.719 98.4081L400.039 103.955C402.362 100.471 404.55 96.8987 406.604 93.2373L397.882 88.3448ZM391.763 98.343L345.005 166.142L353.237 171.819L399.995 104.02L391.763 98.343ZM349.121 173.98H407.179V163.98H349.121V173.98Z" fill="#17191F" mask="url(#path-2-outside-1_3252_99891)"/>
<defs>
<linearGradient id="paint0_linear_3252_99891" x1="-89.0982" y1="-6.90908" x2="360.415" y2="235.202" gradientUnits="userSpaceOnUse">
<stop stop-color="#3077F3"/>
<stop offset="1" stop-color="#88009E"/>
</linearGradient>
</defs>
</svg>
