<svg width="18" height="18" viewBox="0 0 18 18" fill="none" xmlns="http://www.w3.org/2000/svg">
<path d="M17.3125 9.00255C17.3084 11.0337 16.563 12.9934 15.2162 14.5138C13.8695 16.0342 12.0141 17.0107 9.99831 17.26C9.95333 17.2644 9.90792 17.2595 9.86493 17.2455C9.82195 17.2315 9.78232 17.2088 9.74853 17.1788C9.71475 17.1488 9.68754 17.1121 9.66862 17.071C9.64971 17.03 9.63948 16.9854 9.6386 16.9403V10.921H11.5571C11.6445 10.9212 11.7311 10.9034 11.8114 10.8688C11.8917 10.8342 11.9641 10.7835 12.024 10.7198C12.0839 10.6561 12.1302 10.5808 12.1599 10.4986C12.1895 10.4163 12.202 10.3288 12.1966 10.2416C12.1824 10.0762 12.1061 9.92237 11.9829 9.8111C11.8598 9.69984 11.699 9.63942 11.5331 9.64205H9.6386V7.72357C9.6386 7.38436 9.77334 7.05905 10.0132 6.81919C10.2531 6.57934 10.5784 6.44459 10.9176 6.44459H12.1966C12.284 6.44476 12.3706 6.42699 12.4509 6.39238C12.5312 6.35777 12.6036 6.30706 12.6635 6.24338C12.7234 6.1797 12.7697 6.1044 12.7993 6.02214C12.829 5.93988 12.8415 5.85241 12.8361 5.76513C12.8219 5.59977 12.7456 5.44593 12.6224 5.33466C12.4993 5.22339 12.3385 5.16297 12.1726 5.1656H10.9176C10.2392 5.1656 9.58854 5.4351 9.10882 5.91481C8.62911 6.39453 8.35961 7.04515 8.35961 7.72357V9.64205H6.44113C6.35368 9.64188 6.26713 9.65964 6.18681 9.69425C6.1065 9.72886 6.03414 9.77957 5.97421 9.84325C5.91427 9.90693 5.86803 9.98223 5.83835 10.0645C5.80867 10.1468 5.79618 10.2342 5.80164 10.3215C5.81579 10.4869 5.89214 10.6407 6.01527 10.752C6.13841 10.8632 6.29917 10.9237 6.46512 10.921H8.35961V16.9403C8.35984 16.9851 8.35064 17.0294 8.33261 17.0705C8.31458 17.1115 8.28812 17.1483 8.25495 17.1784C8.22179 17.2086 8.18265 17.2314 8.14009 17.2455C8.09753 17.2595 8.05249 17.2645 8.00789 17.26C3.78724 16.7484 0.525833 13.0793 0.6937 8.6908C0.787931 6.52355 1.72556 4.47897 3.30645 2.99349C4.88734 1.50801 6.98625 0.699303 9.15517 0.739989C11.3241 0.780676 13.3912 1.66753 14.9153 3.21126C16.4393 4.75499 17.2996 6.83329 17.3125 9.00255Z" fill="#4167B2"/>
</svg>
