<svg width="16" height="16" viewBox="0 0 16 16" fill="none" xmlns="http://www.w3.org/2000/svg">
<g clipPath="url(#clip0_2465_1030)">
<path d="M15.3197 8.14036C15.3197 7.52582 15.2698 7.07736 15.1619 6.6123H8.14441V9.38604H12.2635C12.1805 10.0754 11.732 11.1134 10.7355 11.811L10.7215 11.9039L12.9403 13.6227L13.094 13.6381C14.5058 12.3342 15.3197 10.4158 15.3197 8.14036Z" fill="#4285F4"/>
<path d="M8.14563 15.4491C10.1636 15.4491 11.8578 14.7847 13.0952 13.6387L10.7367 11.8116C10.1055 12.2518 9.25844 12.559 8.14563 12.559C6.16912 12.559 4.49159 11.2552 3.89359 9.45312L3.80594 9.46057L1.4988 11.2461L1.46863 11.33C2.69771 13.7715 5.22235 15.4491 8.14563 15.4491Z" fill="#34A853"/>
<path d="M3.89395 9.4525C3.73616 8.98744 3.64484 8.48912 3.64484 7.97425C3.64484 7.45933 3.73616 6.96107 3.88565 6.49601L3.88147 6.39696L1.54542 4.58276L1.46899 4.61912C0.962421 5.63231 0.671753 6.77007 0.671753 7.97425C0.671753 9.17843 0.962421 10.3161 1.46899 11.3293L3.89395 9.4525Z" fill="#FBBC05"/>
<path d="M8.14575 3.39002C9.54923 3.39002 10.4959 3.99626 11.0358 4.50288L13.1452 2.4433C11.8497 1.23912 10.1638 0.5 8.14575 0.5C5.22247 0.5 2.69783 2.17754 1.46875 4.6191L3.88541 6.49599C4.49171 4.69387 6.16925 3.39002 8.14575 3.39002Z" fill="#EB4335"/>
</g>
<defs>
<clipPath id="clip0_2465_1030">
<rect width="14.6565" height="15" fill="white" transform="translate(0.671753 0.5)"/>
</clipPath>
</defs>
</svg>
