<svg width="318" height="219" viewBox="0 0 318 219" fill="none" xmlns="http://www.w3.org/2000/svg">
<path d="M22.7628 119.829L0.226562 184.796L96.5095 218.267L119.046 153.3L22.7628 119.829Z" fill="#EBEBEB"/>
<path d="M119.04 153.285C118.66 153.508 118.26 153.694 117.845 153.842L114.35 155.257L101.418 160.321L58.5323 176.754L58.1759 176.885L57.9758 176.566L57.4818 175.789L32.7686 136.314L25.3647 124.295L23.3949 121.002C23.1511 120.627 22.9418 120.231 22.7695 119.819C23.0649 120.153 23.3267 120.516 23.5512 120.902L25.6711 124.101L33.3189 135.988L58.2697 175.32C58.4323 175.589 58.6011 175.852 58.7575 176.096L58.2009 175.908L101.186 159.739L114.225 154.925L117.783 153.673C118.188 153.503 118.609 153.373 119.04 153.285Z" fill="#373A3F"/>
<path d="M0.225848 184.816C0.0945276 184.597 10.425 178.212 23.2944 170.55C36.1638 162.887 46.7069 156.859 46.8382 157.078C46.9695 157.297 36.639 163.682 23.7634 171.345C10.8878 179.007 0.357168 185.004 0.225848 184.816Z" fill="#373A3F"/>
<path d="M79.1247 167.357C79.3623 167.276 83.452 178.625 88.2546 192.654C93.0571 206.683 96.7528 218.17 96.509 218.251C96.2651 218.333 92.1817 206.983 87.3791 192.955C82.5765 178.926 78.8808 167.439 79.1247 167.357Z" fill="#373A3F"/>
<path d="M306.891 102.92L211.617 119.085L222.502 183.373L317.776 167.207L306.891 102.92Z" fill="#E0E0E0"/>
<path d="M306.882 102.948C306.668 103.306 306.421 103.644 306.145 103.956L303.887 106.729L295.445 116.845C288.197 125.403 278.28 137.115 267.305 150.086L267.074 150.361L266.761 150.186L265.998 149.767L227.465 128.245L215.84 121.634L212.713 119.8C212.336 119.606 211.98 119.373 211.65 119.105C212.049 119.251 212.434 119.432 212.801 119.644L216.021 121.34L227.784 127.7L266.442 148.984L267.205 149.404L266.661 149.504L295.014 116.432L303.662 106.498C304.656 105.39 305.444 104.501 306.044 103.825C306.3 103.511 306.58 103.218 306.882 102.948Z" fill="#373A3F"/>
<path d="M222.494 183.395C222.287 183.27 227.959 173.242 235.163 160.997C242.367 148.753 248.383 138.924 248.589 139.05C248.795 139.175 243.123 149.197 235.92 161.448C228.716 173.699 222.7 183.514 222.494 183.395Z" fill="#373A3F"/>
<path d="M280.124 132.858C280.287 132.683 288.879 140.226 299.241 149.717C309.602 159.207 317.932 167.044 317.763 167.245C317.594 167.445 309.046 159.864 298.647 150.386C288.247 140.909 279.937 133.053 280.124 132.858Z" fill="#373A3F"/>
<path d="M211.658 0.733142L194.494 44.4194L259.241 69.9119L276.405 26.2256L211.658 0.733142Z" fill="#EBEBEB"/>
<path d="M276.386 26.8077C276.123 26.9544 275.844 27.07 275.554 27.152L273.134 28.0284L264.173 31.1271L234.464 41.1431L234.22 41.2245L234.095 40.9991L233.782 40.4608L218.03 12.8479C216.06 9.34856 214.459 6.494 213.315 4.44698L212.064 2.14956C211.905 1.88725 211.771 1.6106 211.664 1.32324C211.858 1.55941 212.03 1.81297 212.177 2.0807C212.515 2.65036 212.965 3.3953 213.534 4.32178L218.424 12.6288C222.526 19.7214 228.148 29.4244 234.351 40.1728L234.664 40.7174L234.295 40.5734L264.054 30.7327L273.059 27.7968L275.517 27.0644C275.799 26.9558 276.09 26.87 276.386 26.8077Z" fill="#373A3F"/>
<path d="M194.479 45.0118C194.392 44.8615 201.614 40.7863 210.607 35.916C219.599 31.0457 226.953 27.2271 227.034 27.3773C227.115 27.5276 219.905 31.6028 210.907 36.4543C201.908 41.3058 194.561 45.1683 194.479 45.0118Z" fill="#373A3F"/>
<path d="M248.771 35.3025C248.94 35.2524 251.416 43.0962 254.299 52.8305C257.182 62.5648 259.395 70.4712 259.226 70.5212C259.058 70.5713 256.581 62.7338 253.698 52.9932C250.816 43.2527 248.602 35.3526 248.771 35.3025Z" fill="#373A3F"/>
<path d="M89.3522 99.0631L236.85 97.9927L240.958 198.378L88.2266 196.963L89.3522 99.0631Z" fill="url(#paint0_linear_1235_96889)"/>
<path d="M89.3457 99.063L159.158 42.5165C160.592 41.356 162.382 40.7261 164.227 40.733C166.071 40.7398 167.856 41.383 169.282 42.554L236.849 97.9926" fill="url(#paint1_linear_1235_96889)"/>
<g opacity="0.3">
<path d="M89.3457 99.063L159.158 42.5165C160.592 41.356 162.382 40.7261 164.227 40.733C166.071 40.7398 167.856 41.383 169.282 42.554L236.849 97.9926" fill="black"/>
</g>
<path d="M88.2267 196.963C88.0453 196.788 99.8516 183.88 114.603 168.136C129.355 152.392 141.455 139.766 141.643 139.935C141.83 140.104 130.018 153.012 115.266 168.762C100.514 184.512 88.4143 197.132 88.2267 196.963Z" fill="#263238"/>
<path d="M240.958 198.378C240.77 198.547 229.27 185.902 215.275 170.139C201.28 154.376 190.087 141.456 190.262 141.287C190.437 141.118 201.949 153.763 215.944 169.532C229.939 185.301 241.158 198.209 240.958 198.378Z" fill="#263238"/>
<g opacity="0.5">
<path d="M236.849 97.9927L162.778 157.225L89.3516 99.0631" fill="black"/>
</g>
<path d="M96.7759 104.547L96.5508 58.4356L225.701 56.9019L227.158 105.423L162.774 156.448L96.7759 104.547Z" fill="#FAFAFA"/>
<path d="M96.7755 104.547C96.7755 104.547 97.1945 104.86 97.9887 105.48L101.491 108.209L114.841 118.644L162.873 156.342H162.711L227.076 105.298L227.014 105.43C226.739 96.1773 226.445 86.4618 226.145 76.5835C225.951 69.9292 225.751 63.3562 225.557 56.9084L225.719 57.0649L96.5692 58.536L96.6692 58.4358C96.7193 72.9402 96.763 84.4649 96.788 92.365C96.788 96.3151 96.788 99.3574 96.788 101.417V103.752C96.788 104.278 96.788 104.547 96.788 104.547C96.788 104.547 96.788 104.284 96.788 103.764C96.788 103.245 96.788 102.462 96.788 101.442C96.788 99.3825 96.7443 96.3464 96.713 92.4026C96.663 84.4899 96.5879 72.959 96.4941 58.4358V58.3294H96.5942L225.751 56.7456H225.907V56.9084C226.101 63.3499 226.295 69.9229 226.495 76.5773C226.795 86.4618 227.083 96.1711 227.364 105.43V105.511L227.301 105.561L162.892 156.561L162.811 156.624L162.729 156.561L114.729 118.738L101.459 108.253L97.9574 105.498C97.1695 104.872 96.7755 104.547 96.7755 104.547Z" fill="#263238"/>
<path d="M205.289 80.1265C205.289 80.2141 185.535 80.4082 161.178 80.5522C136.821 80.6961 117.061 80.7525 117.061 80.6586C117.061 80.5647 136.809 80.3769 161.178 80.2266C185.547 80.0764 205.289 80.0326 205.289 80.1265Z" fill="#263238"/>
<path d="M205.289 93.1473C205.289 93.2412 185.535 93.4353 161.178 93.5793C136.821 93.7233 117.061 93.7733 117.061 93.6857C117.061 93.5981 136.809 93.404 161.178 93.2538C185.547 93.1035 205.289 93.0597 205.289 93.1473Z" fill="#263238"/>
<path d="M205.289 108.165C205.289 108.253 185.535 108.447 161.178 108.597C136.821 108.747 117.061 108.791 117.061 108.697C117.061 108.603 136.809 108.416 161.178 108.272C185.547 108.128 205.289 108.071 205.289 108.165Z" fill="#263238"/>
<path d="M205.289 123.177C205.289 123.271 186.448 123.452 163.204 123.596C139.961 123.74 121.12 123.778 121.113 123.69C121.107 123.602 139.955 123.415 163.204 123.271C186.454 123.127 205.289 123.089 205.289 123.177Z" fill="#263238"/>
<path d="M188.769 136.354C188.599 136.383 188.427 136.395 188.256 136.392L186.767 136.435L181.315 136.523L163.311 136.78C156.282 136.899 149.91 136.936 145.302 136.943H139.849H138.36C138.189 136.946 138.017 136.935 137.848 136.911C138.017 136.882 138.189 136.87 138.36 136.874L139.849 136.836L145.302 136.742L163.305 136.486C170.334 136.367 176.706 136.329 181.308 136.323H186.767H188.256C188.427 136.322 188.598 136.333 188.769 136.354Z" fill="#263238"/>
<path d="M172.141 149.024C172.141 149.112 167.932 149.187 162.761 149.187C157.589 149.187 153.381 149.112 153.381 149.024C153.381 148.936 157.596 148.861 162.761 148.861C167.926 148.861 172.141 148.93 172.141 149.024Z" fill="#263238"/>
<defs>
<linearGradient id="paint0_linear_1235_96889" x1="54.7733" y1="95.3853" x2="212.663" y2="170.695" gradientUnits="userSpaceOnUse">
<stop stop-color="#3077F3"/>
<stop offset="1" stop-color="#88009E"/>
</linearGradient>
<linearGradient id="paint1_linear_1235_96889" x1="57.0375" y1="39.2178" x2="171.977" y2="130.338" gradientUnits="userSpaceOnUse">
<stop stop-color="#3077F3"/>
<stop offset="1" stop-color="#88009E"/>
</linearGradient>
</defs>
</svg>
