<svg width="94" height="126" viewBox="0 0 94 126" fill="none" xmlns="http://www.w3.org/2000/svg">
<path opacity="0.6" fill-rule="evenodd" clip-rule="evenodd" d="M30.0326 34.8914V34.8759L29.0938 34.8756C28.1313 34.8753 27.1688 34.8749 26.2063 34.8781C26.034 34.8787 25.8614 34.8984 25.6894 34.918L25.62 34.9259C25.2484 34.9675 25.0161 34.8095 24.9777 34.4453C24.8918 33.6327 24.8173 32.8187 24.7483 32.0045C24.7214 31.6869 24.9038 31.4762 25.229 31.4693C25.6076 31.4613 25.9864 31.4621 26.3652 31.4628H26.3652H26.3652H26.3653H26.3653C26.662 31.4634 26.9588 31.464 27.2556 31.4604C28.4779 31.4456 29.7003 31.43 30.9223 31.4007C31.4713 31.3874 31.6665 31.5157 31.7411 32.0543C31.7691 32.2567 31.7825 32.4609 31.7959 32.6652C31.8068 32.8312 31.8177 32.9972 31.8364 33.1623C31.8756 33.5068 31.916 33.8539 31.9957 34.1903C32.1071 34.6612 31.9589 34.8841 31.4736 34.89C31.1388 34.8942 30.8039 34.8932 30.4691 34.8922C30.3236 34.8918 30.1781 34.8914 30.0326 34.8914ZM63.455 31.3498V31.3685L64.5274 31.3687C65.457 31.369 66.3865 31.3694 67.3159 31.3676C67.5538 31.3671 67.7917 31.3624 68.0295 31.3578L68.0299 31.3578C68.1946 31.3545 68.3594 31.3513 68.5242 31.3495C68.9573 31.3447 69.0901 31.4739 69.1368 31.8934C69.2133 32.5787 69.2978 33.263 69.3823 33.9475L69.3824 33.9484L69.3826 33.9496L69.3827 33.9507L69.3829 33.9519L69.4171 34.2297C69.4798 34.7372 69.3516 34.8807 68.8337 34.881C66.9236 34.8824 65.0134 34.8844 63.1032 34.8881C62.6862 34.8889 62.5379 34.7569 62.483 34.3391C62.4012 33.7188 62.3162 33.0991 62.2312 32.4792L62.1665 32.007C62.1126 31.6126 62.305 31.3691 62.7016 31.3518C62.8744 31.3442 63.0477 31.3461 63.2211 31.348H63.2212C63.2991 31.3489 63.3771 31.3498 63.455 31.3498ZM57.0088 34.8366V34.8886L56.0801 34.8883C55.2758 34.888 54.4715 34.8877 53.6672 34.8895C53.3584 34.8903 53.1592 34.7505 53.1144 34.445L53.078 34.1968C52.9712 33.4698 52.8643 32.7425 52.7855 32.0124C52.7301 31.499 52.927 31.3569 53.4412 31.3889C53.6718 31.4033 53.9038 31.3926 54.1359 31.3819C54.2961 31.3745 54.4563 31.3671 54.6161 31.3679C55.2963 31.3711 55.9765 31.377 56.6567 31.3829H56.6568H56.6569H56.6571H56.6572C57.2845 31.3884 57.9118 31.3938 58.5391 31.3971C58.6804 31.3979 58.8217 31.3875 58.963 31.3771L58.9631 31.3771C59.0507 31.3707 59.1383 31.3642 59.2259 31.3605C59.569 31.3456 59.7963 31.4964 59.8297 31.826C59.9181 32.6951 59.9873 33.5663 60.0472 34.4378C60.0695 34.7613 59.8328 34.8352 59.5661 34.8358C58.9502 34.8372 58.3342 34.837 57.7182 34.8368H57.714L57.0088 34.8366ZM47.6511 34.8813C47.6509 34.8685 47.6509 34.8556 47.6509 34.8428L46.9557 34.8425C46.2058 34.8422 45.4559 34.8418 44.706 34.8452C44.5985 34.8458 44.49 34.8704 44.3836 34.8946L44.3528 34.9016C43.9824 34.9849 43.7533 34.8344 43.7125 34.455C43.6941 34.284 43.6826 34.1121 43.6711 33.9402L43.6711 33.9401L43.6711 33.94L43.6711 33.9399L43.671 33.9398L43.671 33.9398L43.671 33.9397L43.671 33.9396L43.671 33.9395C43.657 33.7303 43.643 33.5211 43.6166 33.3135C43.5702 32.9471 43.5049 32.5817 43.4221 32.2217C43.304 31.7081 43.5085 31.4013 44.0299 31.3899C45.0776 31.3668 46.1258 31.3509 47.1739 31.3478C47.7167 31.3461 48.2595 31.354 48.8023 31.3619H48.8024H48.8024H48.8025H48.8025C49.1409 31.3668 49.4792 31.3718 49.8176 31.3744C50.2698 31.3778 50.4274 31.5134 50.4707 31.9647C50.5478 32.7684 50.6231 33.572 50.6975 34.3759C50.7311 34.7398 50.5963 34.8827 50.2364 34.8819C49.6209 34.8806 49.0054 34.8808 48.39 34.8811L47.6511 34.8813ZM37.7864 31.4101L37.7869 31.3335C38.0443 31.3335 38.3018 31.3344 38.5592 31.3353L38.5608 31.3353C39.176 31.3374 39.7912 31.3395 40.4061 31.3296C40.9247 31.3213 41.0562 31.4411 41.1135 31.9519C41.2004 32.7274 41.3118 33.5003 41.4231 34.2729L41.4381 34.3772C41.4828 34.6884 41.329 34.8974 40.9858 34.9178C40.6859 34.9356 40.3844 34.9349 40.0837 34.9341H40.0836L40.0692 34.9341C39.4215 34.9323 38.7738 34.9297 38.1261 34.9272H38.126H38.126H38.1259H38.1259C37.2899 34.9239 36.4539 34.9207 35.6179 34.9189C35.5272 34.9188 35.4365 34.9265 35.3458 34.9342L35.3457 34.9342C35.2622 34.9413 35.1787 34.9484 35.0951 34.9494C34.6138 34.9553 34.3489 34.6872 34.3091 34.221C34.2481 33.5054 34.1716 32.7908 34.0803 32.0785C34.0169 31.5823 34.1201 31.418 34.6118 31.4132C35.3628 31.4061 36.114 31.4075 36.865 31.409C37.1722 31.4095 37.4793 31.4101 37.7864 31.4101ZM22.6296 34.3207C22.6669 34.7321 22.4756 34.959 22.0786 34.9443C21.6542 34.9443 21.3564 34.9448 21.0998 34.9453H21.0984H21.0984H21.0983C20.5962 34.9462 20.2508 34.9468 19.42 34.9426C18.6241 34.9387 17.8282 34.9231 17.0327 34.9033C16.6781 34.8945 16.4854 34.6843 16.455 34.2806C16.4356 34.0226 16.4207 33.7642 16.4058 33.5058C16.3905 33.2409 16.3752 32.9761 16.355 32.7116C16.3457 32.5892 16.3261 32.4676 16.3065 32.346C16.2897 32.2412 16.2728 32.1364 16.2625 32.031C16.2187 31.5818 16.4816 31.3773 16.9265 31.395C17.849 31.4317 18.7735 31.4315 19.6969 31.4248C20.3218 31.4205 20.5906 31.4094 20.9067 31.3963C21.1486 31.3863 21.4182 31.3752 21.8963 31.3651C22.1885 31.3589 22.354 31.5177 22.403 31.7788C22.4478 32.0168 22.4671 32.2599 22.4862 32.5024L22.492 32.5752L22.4987 32.6564C22.5185 32.8941 22.5362 33.132 22.5538 33.3698L22.5539 33.3701L22.5539 33.3703L22.5539 33.3706L22.5539 33.3709C22.5775 33.6876 22.601 34.0044 22.6296 34.3207ZM17.6617 42.5338C31.8033 42.5678 68.4925 42.6559 70.5097 42.6078C70.5099 42.5993 76.0313 42.5571 78.1854 42.5558C78.7626 42.5553 79.2901 42.7613 79.7097 43.1476C80.0252 43.4379 80.2964 43.7793 80.5651 44.1174L80.5652 44.1175L80.6307 44.1999C81.0488 44.7247 81.3381 45.3015 81.2672 46.0048L81.2646 46.0301L81.2646 46.0303C81.2261 46.4116 81.1875 46.7939 81.1778 47.1765C81.1537 48.1233 80.8817 49.0056 80.3171 49.7453C79.5551 50.7436 78.4862 51.2439 77.2292 51.3106C76.4432 51.3522 49.2498 51.6813 49.2498 51.6813C49.0751 74.8373 59.4002 92.4187 59.7328 92.3996C60.0063 92.3839 60.2801 92.3712 60.5538 92.3586C60.8043 92.347 61.0548 92.3353 61.3051 92.3214C61.7989 92.294 62.0892 92.4482 62.2965 92.9061C62.5985 93.5729 62.8895 94.2451 63.1673 94.9224C63.3691 95.414 63.136 95.7431 62.6073 95.749C62.4549 95.7507 62.3026 95.7529 62.1502 95.7551H62.1501H62.15H62.1499H62.1498C61.7885 95.7604 61.4272 95.7656 61.0658 95.764C60.8086 95.7629 60.7319 95.8858 60.785 96.116C60.8044 96.2003 60.8363 96.2837 60.8751 96.3614L61.2409 97.0933L61.2414 97.0942C61.9201 98.4523 62.5988 99.8105 63.2917 101.161C63.3636 101.301 63.5642 101.458 63.7106 101.464C64.3214 101.488 64.9348 101.467 65.5463 101.441C65.7677 101.432 65.8957 101.286 65.8076 101.057C65.6828 100.731 65.5472 100.408 65.3906 100.097C65.1527 99.6249 65.2295 99.4709 65.7746 99.4569C67.0866 99.4233 68.3986 99.3927 69.7105 99.362C70.7927 99.3367 71.8748 99.3114 72.9568 99.2845C73.2861 99.2763 73.4941 99.4248 73.6152 99.7196C73.7546 100.06 73.8945 100.399 74.0343 100.739L74.0403 100.754L74.0408 100.755C74.2897 101.36 74.5387 101.965 74.7851 102.57L74.8596 102.753C75.2467 103.704 75.6338 104.655 76.0095 105.611C76.1892 106.068 76.5037 106.286 76.9933 106.257C77.0506 106.254 77.1081 106.253 77.1656 106.252C77.2065 106.251 77.2474 106.251 77.2883 106.249L77.8631 106.228L78.7577 106.195C80.3984 106.134 82.0392 106.074 83.6798 106.006C84.0529 105.99 84.2522 106.138 84.3944 106.484C85.1716 108.374 85.9636 110.258 86.7632 112.138C86.9958 112.685 86.9293 112.821 86.3293 112.839C85.9682 112.85 85.6071 112.858 85.2459 112.867C84.7106 112.88 84.1753 112.893 83.6403 112.913C83.2396 112.928 83.0725 113.125 83.2061 113.447C83.5993 114.396 84.0122 115.336 84.4286 116.275C84.5586 116.568 84.8078 116.677 85.1282 116.647C85.4109 116.62 85.6952 116.607 85.9791 116.598C86.3012 116.588 86.6233 116.579 86.9455 116.57C87.3119 116.561 87.6784 116.551 88.0448 116.538C88.4449 116.524 88.5782 116.338 88.4649 115.96C88.4421 115.883 88.4087 115.81 88.3752 115.737L88.3751 115.737C88.3586 115.7 88.342 115.664 88.3268 115.627C88.2465 115.435 88.1652 115.242 88.0839 115.05L88.0834 115.049L88.0834 115.048L88.0833 115.048L88.0832 115.048C87.8926 114.597 87.7019 114.146 87.5249 113.689C87.3334 113.195 87.4628 113.031 87.9844 113.007C88.6277 112.976 89.2707 112.939 89.9137 112.903C90.1855 112.887 90.4572 112.872 90.729 112.857C90.8199 112.852 90.9108 112.847 91.0016 112.841L91.1694 112.83C91.5089 112.809 91.8484 112.788 92.1882 112.781C92.4009 112.776 92.6138 112.784 92.8268 112.791L92.8272 112.791C93.0487 112.799 93.2702 112.807 93.4915 112.801C93.9734 112.789 94.1042 112.579 93.9035 112.143C93.3777 111.002 92.849 109.861 92.3204 108.721C91.9159 107.849 91.5115 106.977 91.1084 106.104C90.96 105.782 90.7266 105.679 90.3737 105.689C89.1223 105.723 87.8706 105.747 86.6189 105.772H86.6187H86.6186H86.6184H86.6182C85.992 105.784 85.3657 105.796 84.7396 105.81C84.4639 105.815 84.2809 105.706 84.1865 105.443C84.1607 105.372 84.1279 105.303 84.0951 105.234C84.0715 105.184 84.0479 105.134 84.0269 105.084C83.2775 103.278 82.5288 101.472 81.7804 99.6656C81.6561 99.3655 81.7317 99.2334 82.0513 99.194C82.1124 99.1865 82.1745 99.1861 82.2364 99.1858L82.2807 99.1855L85.7866 99.1414L87.5291 99.1195C87.579 99.1189 87.396 98.8282 87.0421 98.266C84.7899 94.6883 75.6152 80.1136 75.475 59.3005C75.4733 59.0247 76.5409 58.9081 76.8187 58.8964C77.1886 58.8809 88.7856 58.326 88.7856 45.6319C88.7966 45.539 88.7528 34.9719 72.4535 34.9719C71.9758 34.9729 71.703 34.7692 71.6528 34.2934C71.5891 33.6891 71.5477 33.0824 71.5063 32.4759C71.4919 32.2648 71.4775 32.0538 71.4621 31.8429C71.444 31.5942 71.5601 31.4638 71.8129 31.421C72.0352 31.3832 71.9903 29.8153 71.9051 26.84C71.76 21.7737 71.4981 12.6266 72.2399 0.00496591L57.9126 0.00481097C57.8858 0.00481097 57.859 0.00560716 57.8322 0.00640345C57.7824 0.00788256 57.7325 0.00936203 57.683 0.00573987C57.4403 -0.0119054 57.4067 0.100777 57.4165 0.325831C57.4303 0.64422 56.4183 14.2156 43.2945 14.2156C28.3882 14.2156 27.3609 1.51333 27.2857 0.471482C27.252 0.00496325 27.224 0.0049634 26.7518 0.00496589L26.7486 0.00496591C25.5688 0.00488563 24.12 0.00377487 22.6192 0.00262426C18.3325 -0.000662108 13.6219 -0.00427359 13.5454 0.014872C13.4662 0.0346842 13.5449 31.3086 13.5449 31.3086C13.8726 31.3273 14.0415 31.4905 14.0672 31.8211C14.1101 32.3744 14.1521 32.9278 14.1941 33.4811L14.1942 33.4827L14.2616 34.3694C14.2992 34.8613 14.1843 34.9499 13.6985 34.9735C-1.49331 34.9496 -0.041914 47.7014 0.0992481 48.2857C0.114724 48.3497 0.127633 48.4678 0.14548 48.6311C0.355039 50.5481 1.24547 58.6936 14.9677 58.6936C15.0612 58.6913 15.092 59.3455 15.1477 60.5305C15.3992 65.8772 16.1592 82.0321 25.4837 97.4804C25.7811 97.4541 26.8001 97.4406 27.7521 97.428C28.5416 97.4175 29.2851 97.4077 29.5325 97.3917L29.6241 97.3859L29.7204 97.38H29.7204C30.0619 97.3592 30.4046 97.3384 30.739 97.2767C31.2431 97.1835 31.4162 96.8018 31.1944 96.3472L31.1704 96.2981C30.8288 95.5978 30.4871 94.8975 30.1327 94.2036C29.927 93.8009 29.9936 93.6441 30.4531 93.6122C31.0935 93.5676 31.7342 93.5288 32.375 93.49L32.3754 93.49L32.3759 93.49L32.3763 93.4899L32.3768 93.4899C32.8704 93.46 33.3639 93.4302 33.8573 93.3977C34.3501 93.3652 34.6815 93.5902 34.8592 94.0295C34.9233 94.1882 34.973 94.3532 35.0226 94.5181C35.086 94.7288 35.1494 94.9393 35.2427 95.1359C35.7744 96.2554 36.3179 97.3694 36.8613 98.4833C37.07 98.9111 37.2787 99.3389 37.4868 99.767C37.6282 100.058 37.5467 100.228 37.2337 100.29C37.1483 100.306 37.0599 100.31 36.9727 100.314C34.3653 100.434 31.7578 100.554 29.1503 100.672C28.8442 100.685 28.7384 100.818 28.8175 101.119C28.8395 101.203 28.8762 101.284 28.9124 101.363C29.0805 101.732 29.2462 102.102 29.4119 102.471L29.4119 102.471C29.7959 103.328 30.1798 104.185 30.5926 105.027C31.2002 106.268 31.8287 107.498 32.4572 108.727L32.4574 108.728L32.4579 108.729L32.458 108.729L32.458 108.729L32.458 108.729L32.4581 108.729C32.724 109.249 32.9899 109.77 33.2542 110.291C33.4455 110.668 33.7494 110.867 34.1761 110.855C34.4368 110.847 34.6976 110.84 34.9583 110.834L34.9588 110.834L34.9593 110.834L34.9597 110.833L34.9602 110.833C35.8464 110.81 36.7327 110.787 37.6183 110.747C38.2452 110.718 38.3692 110.461 38.0587 109.922C37.9022 109.65 37.7449 109.379 37.5876 109.107L37.5873 109.107L37.5871 109.106L37.5868 109.106L37.5866 109.106C37.3552 108.706 37.1238 108.307 36.8949 107.906C36.7108 107.584 36.789 107.445 37.1636 107.43C39.8511 107.321 42.5386 107.214 45.2261 107.11C45.7737 107.089 45.9084 106.907 45.742 106.381C45.7189 106.308 45.6924 106.236 45.6596 106.167C45.3428 105.507 45.025 104.848 44.7063 104.189C44.4206 103.598 44.2053 103.471 43.5461 103.508L43.0087 103.539C42.0634 103.592 41.1182 103.646 40.1733 103.704C39.8263 103.725 39.5968 103.589 39.4387 103.275C39.0606 102.524 38.6682 101.779 38.274 101.036C38.0276 100.572 38.0982 100.438 38.6187 100.411C39.2227 100.381 39.8268 100.349 40.4308 100.318L40.4377 100.318C41.3708 100.269 42.3039 100.22 43.2371 100.175C43.769 100.149 44.301 100.126 44.833 100.102H44.8332C45.4482 100.076 46.0631 100.049 46.6778 100.018C47.0392 99.9995 47.2932 100.121 47.4234 100.47C47.4609 100.571 47.506 100.669 47.551 100.767L47.5692 100.807L47.5938 100.861C47.7668 101.245 47.9399 101.628 48.113 102.012C48.5643 103.013 49.0156 104.014 49.4644 105.016C49.5664 105.243 49.7273 105.351 49.9757 105.346C50.4359 105.335 50.896 105.326 51.3562 105.317C52.0878 105.302 52.8193 105.287 53.5508 105.269C53.8596 105.261 53.9611 105.105 53.8585 104.81C53.8168 104.691 53.7675 104.573 53.7183 104.456C53.666 104.331 53.6137 104.207 53.5704 104.079C53.4908 103.844 53.4156 103.608 53.3405 103.371L53.3405 103.371C53.2273 103.015 53.1142 102.659 52.9855 102.309C52.8046 101.815 52.6058 101.329 52.4069 100.842L52.4068 100.842L52.3296 100.652L52.2577 100.476L52.1984 100.329C52.033 99.9187 52.1167 99.7829 52.5509 99.7735C52.8952 99.766 53.2395 99.7593 53.5839 99.7525L53.5937 99.7523L54.1581 99.7411C54.2371 99.7395 54.0263 99.4107 53.6034 98.7513C51.108 94.8599 41.228 79.453 39.9432 51.8037C39.8805 51.5985 39.7955 51.4774 39.5692 51.4699C39.4663 51.4664 38.1735 51.4491 36.1885 51.4225L36.1738 51.4223L36.1676 51.4222C28.6973 51.3221 11.4944 51.0916 10.8749 50.9763C9.93308 50.801 9.2008 50.2056 8.61835 49.4603C8.35414 49.122 8.0732 48.7455 7.97074 48.3431C7.77385 47.5712 7.72107 46.7683 7.9322 45.9752L7.94958 45.9108C7.98684 45.7737 8.02457 45.6348 8.03327 45.4951C8.10726 44.3099 8.82545 43.5947 9.7851 43.0376C10.5352 42.6022 11.3639 42.5212 12.1931 42.5212C12.4428 42.5212 14.4706 42.5261 17.6325 42.5337L17.6617 42.5338ZM62.7444 113.735L62.7453 113.735L62.7462 113.735C63.2915 113.717 63.8367 113.698 64.382 113.68C64.382 113.677 64.3818 113.675 64.3816 113.672L65.9676 113.621C67.3832 113.575 68.7988 113.529 70.2143 113.482C70.7384 113.465 70.9375 113.196 70.7449 112.707C70.4533 111.965 70.1419 111.231 69.808 110.507C69.578 110.009 69.6294 109.907 70.1936 109.898C71.1553 109.883 72.1169 109.865 73.0781 109.834C73.5611 109.819 73.7056 109.579 73.5188 109.143C73.2547 108.525 72.9881 107.909 72.7214 107.293L72.6105 107.036C72.3126 106.347 72.1109 106.201 71.3546 106.251C70.5661 106.303 69.7764 106.321 68.9866 106.339C68.4627 106.351 67.9388 106.363 67.4152 106.385C65.6097 106.46 63.8014 106.47 61.9932 106.48C61.2655 106.484 60.5378 106.488 59.8103 106.496C59.3384 106.502 59.2156 106.64 59.3876 107.074C59.6513 107.74 59.9382 108.397 60.225 109.053L60.3475 109.334C60.5898 109.89 60.4974 110.043 59.8965 110.048L59.8746 110.048L59.8403 110.047C59.8153 110.047 59.7903 110.046 59.7654 110.047L59.3883 110.056L58.957 110.066C58.2649 110.081 57.573 110.097 56.8812 110.119C56.4475 110.133 56.3272 110.317 56.4807 110.672C56.8222 111.463 57.1592 112.255 57.4947 113.048C57.7735 113.707 58.0363 113.889 58.746 113.867C60.0789 113.825 61.4117 113.78 62.7444 113.735ZM68.4665 125.999C68.2138 125.999 67.9611 125.999 67.7084 125.999C67.1194 125.998 66.5303 125.998 65.9413 126C65.4016 126.002 65.2419 125.885 65.0244 125.386C64.4481 124.064 63.8655 122.744 63.2743 121.429C63.048 120.925 63.1794 120.685 63.7431 120.669C64.9138 120.637 66.0846 120.608 67.2555 120.579C67.7134 120.568 68.1713 120.557 68.6293 120.545C68.6638 120.545 68.6983 120.544 68.7329 120.544H68.7342C68.8087 120.544 68.8832 120.543 68.9571 120.537C69.298 120.507 69.3852 120.371 69.251 120.06C68.9135 119.278 68.5731 118.496 68.2261 117.718C68.0145 117.244 68.1875 116.954 68.7138 116.933C69.0377 116.92 69.3617 116.908 69.6857 116.897H69.686L69.6868 116.897C70.2913 116.876 70.8958 116.855 71.4996 116.822C72.0647 116.791 72.4422 117.019 72.6634 117.534C72.8082 117.871 72.9547 118.207 73.1013 118.543L73.1015 118.543C73.3086 119.018 73.5157 119.493 73.7176 119.97C73.8747 120.342 73.7489 120.529 73.3355 120.549C72.6092 120.584 71.8828 120.614 71.1563 120.644L70.6984 120.663L70.3204 120.679C69.8154 120.7 69.7626 120.801 69.9618 121.254C70.5551 122.604 71.1402 123.958 71.7209 125.313C71.8731 125.668 71.7875 125.83 71.3833 125.856C70.8676 125.89 70.35 125.898 69.8325 125.906H69.8319L69.5986 125.91C69.5055 125.912 69.4124 125.913 69.3193 125.915C69.1242 125.919 68.9291 125.918 68.7339 125.917C68.6447 125.917 68.5556 125.916 68.4665 125.916V125.999ZM57.5849 117.067C57.5303 117.067 57.4758 117.066 57.4213 117.066L57.2943 117.066L57.2942 117.149C57.1367 117.149 56.9792 117.147 56.8217 117.146H56.8211C56.4549 117.143 56.0887 117.141 55.723 117.153C55.3193 117.167 55.1458 117.436 55.3092 117.804C55.5951 118.447 55.8914 119.086 56.1877 119.725L56.1881 119.726L56.3199 120.011C56.3876 120.157 56.4553 120.303 56.5227 120.449C56.6736 120.777 56.9303 120.908 57.2881 120.887C57.7238 120.862 58.1609 120.84 58.597 120.848C59.1816 120.859 59.7664 120.888 60.3496 120.932C60.7726 120.964 61.0099 120.668 60.8327 120.263C60.4485 119.384 60.0564 118.508 59.6476 117.639C59.4597 117.24 59.1254 117.047 58.6683 117.062C58.3501 117.073 58.0314 117.07 57.7127 117.068C57.6701 117.068 57.6275 117.067 57.5849 117.067ZM80.5691 120.415C80.3617 120.415 80.1544 120.416 79.947 120.417C79.4382 120.419 78.9294 120.421 78.4209 120.41C78.0964 120.404 77.8598 120.198 77.7353 119.92C77.3559 119.075 76.9899 118.223 76.6458 117.362C76.4888 116.97 76.7754 116.639 77.2555 116.617C77.6487 116.6 78.042 116.587 78.4354 116.575C78.6529 116.568 78.8705 116.561 79.088 116.553C79.1476 116.551 79.2077 116.551 79.2679 116.551C79.4166 116.55 79.5656 116.55 79.7083 116.52C80.2714 116.403 80.6355 116.691 80.8463 117.138C81.0753 117.623 81.2674 118.126 81.4594 118.629C81.5319 118.819 81.6043 119.008 81.6787 119.197C81.7665 119.42 81.8543 119.643 81.9221 119.873C82.0186 120.198 81.8908 120.386 81.5504 120.403C81.3237 120.415 81.0963 120.412 80.8689 120.409C80.7689 120.408 80.6689 120.407 80.5689 120.407L80.5691 120.415ZM45.7579 110.361C45.5939 110.361 45.43 110.361 45.266 110.361V110.442C45.0983 110.442 44.9305 110.441 44.7628 110.441C44.3733 110.44 43.9838 110.438 43.5943 110.443C43.1633 110.449 43.0365 110.606 43.188 110.994C43.2332 111.109 43.2779 111.225 43.3226 111.341C43.5609 111.957 43.7996 112.575 44.0997 113.161C44.4252 113.796 44.8659 114.344 45.7404 114.134C45.8993 114.096 46.0684 114.101 46.2378 114.107C46.3231 114.109 46.4084 114.112 46.4925 114.109C46.678 114.103 46.8635 114.098 47.049 114.092C47.5628 114.077 48.0765 114.062 48.5892 114.03C49.0419 114.002 49.1842 113.74 48.9938 113.331C48.8191 112.957 48.6415 112.583 48.4639 112.21C48.2709 111.804 48.078 111.399 47.8888 110.992C47.6854 110.554 47.3455 110.357 46.8723 110.36C46.5009 110.362 46.1294 110.361 45.7579 110.361Z" fill="#A7DBEE"/>
</svg>
