<svg width="86" height="21" viewBox="0 0 86 21" fill="none" xmlns="http://www.w3.org/2000/svg">
<g clipPath="url(#clip0_1174_534227)">
<path d="M85.9744 1.46496C85.8093 1.85161 85.507 1.96632 85.1023 1.9646C82.8663 1.95472 80.6278 1.95988 78.39 1.95988H77.8375C77.8328 2.13988 77.8246 2.30357 77.8246 2.46253C77.8246 8.248 77.8246 14.0325 77.8246 19.816C77.8246 19.9556 77.8323 20.0961 77.8203 20.2348C77.8139 20.4186 77.7363 20.5926 77.604 20.7203C77.4716 20.8481 77.2948 20.9194 77.1108 20.9194C76.9268 20.9194 76.75 20.8481 76.6176 20.7203C76.4852 20.5926 76.4077 20.4186 76.4013 20.2348C76.3893 20.0961 76.3953 19.956 76.3953 19.816V1.95988H75.9081C73.6844 1.95988 71.4609 1.95988 69.2375 1.95988C69.0978 1.96614 68.9578 1.96226 68.8187 1.94828C68.442 1.89157 68.1595 1.53456 68.1943 1.17497C68.2291 0.815382 68.5142 0.558902 68.9064 0.543866C68.9765 0.540859 69.0461 0.543866 69.1162 0.543866C74.4439 0.543866 79.7718 0.541288 85.0998 0.536133C85.4868 0.536133 85.7761 0.62807 85.9744 0.962311V1.46496Z" fill="#A7DBEE"/>
<path d="M62.6471 12.1208C62.664 12.0163 62.6754 11.9111 62.6815 11.8054C62.6815 10.6455 62.6923 9.4855 62.6759 8.32554C62.6762 8.06117 62.6212 7.79965 62.5142 7.55782C62.227 6.95894 61.6895 6.7626 61.057 6.76991C59.9659 6.78194 58.875 6.79382 57.7842 6.80557C57.2949 6.81029 56.8051 6.81287 56.3158 6.80557C55.8024 6.80041 55.6656 6.66207 55.6592 6.1663C55.6497 5.43982 55.7052 5.38397 56.4465 5.38397C57.9992 5.38397 59.552 5.39041 61.1047 5.38096C61.8129 5.37624 62.4613 5.53176 63.0208 5.98242C63.689 6.52159 64.0726 7.21628 64.0829 8.07809C64.0996 9.51729 64.0962 10.9565 64.0829 12.3966C64.0777 13.1037 63.6292 13.5299 62.9094 13.532C61.1606 13.5376 59.4122 13.5342 57.6634 13.5342H50.0313C50.0114 13.598 49.997 13.6634 49.9883 13.7297C49.9815 14.9034 49.9531 16.0779 49.9797 17.2525C49.9891 17.7322 50.1524 18.1963 50.4456 18.5763C50.7387 18.9564 51.1462 19.2323 51.6081 19.3636C51.9174 19.4485 52.2369 19.4897 52.5576 19.4861C56.069 19.4947 59.5806 19.4965 63.0926 19.4917C63.2186 19.4917 63.3446 19.4865 63.4701 19.4951C63.8115 19.5187 64.0472 19.7305 64.1035 20.0566C64.1573 20.3676 63.9986 20.701 63.7105 20.817C63.5673 20.8704 63.4153 20.8965 63.2624 20.8939C59.4994 20.8979 55.7366 20.8979 51.9741 20.8939C50.2055 20.8892 48.7615 19.5518 48.5956 17.7977C48.5762 17.5898 48.5711 17.3792 48.5706 17.17C48.5689 15.6466 48.5689 14.1232 48.5706 12.5998V12.1208H62.6471Z" fill="white"/>
<path d="M29.1227 5.39126C29.8077 5.39126 30.4935 5.37408 31.1781 5.39513C32.4345 5.43379 33.3233 6.05502 33.8251 7.19178C34.4396 8.58287 35.0171 9.99072 35.6109 11.3908C36.575 13.6652 37.5395 15.9393 38.5044 18.2131C38.5474 18.3158 38.5904 18.4189 38.6368 18.5203C38.9409 19.1832 39.4693 19.5234 40.1879 19.5471C40.8685 19.5698 41.4065 19.2854 41.7724 18.7046C41.8591 18.5615 41.933 18.4112 41.9934 18.2552C43.4236 14.7393 44.8522 11.2229 46.2792 7.70603C46.766 6.50311 47.6281 5.74183 48.8949 5.45699C49.1641 5.39685 49.4496 5.39083 49.7283 5.38954C51.0148 5.38267 52.3014 5.38195 53.5879 5.3874C54.1405 5.3874 54.2368 5.49437 54.2372 6.06017C54.2417 6.15786 54.2397 6.25574 54.2312 6.35317C54.1994 6.58946 54.0566 6.72393 53.8176 6.74713C53.7208 6.75658 53.6219 6.75013 53.5243 6.75013C52.3775 6.75013 51.2303 6.7699 50.0843 6.74455C48.9882 6.72092 48.1884 7.17416 47.7167 8.15111C47.316 8.97941 46.9599 9.83004 46.6013 10.6781C45.4489 13.4027 44.3022 16.1298 43.1613 18.8593C42.8109 19.697 42.2686 20.3358 41.4099 20.6744C39.8279 21.2982 38.092 20.5842 37.395 18.9989C36.8657 17.7994 36.3716 16.584 35.8625 15.3747C34.8551 12.9826 33.8475 10.591 32.8396 8.20008C32.7849 8.05669 32.7203 7.91729 32.6461 7.78293C32.3021 7.20596 31.8093 6.84121 31.1247 6.81672C30.4402 6.79224 29.7548 6.80856 29.0698 6.80856C28.3285 6.80856 27.5876 6.81758 26.8462 6.80856C26.3603 6.80255 26.1398 6.58087 26.1303 6.12848C26.1195 5.60435 26.3169 5.39599 26.8574 5.3904C27.6121 5.3831 28.3676 5.3904 29.1227 5.3904V5.39126Z" fill="white"/>
<path d="M15.5448 20.8252H14.1279V20.3273C14.1279 16.4556 14.1279 12.5839 14.1279 8.7122C14.1279 7.86543 13.6601 7.18363 12.8968 6.96109C12.6208 6.88075 12.318 6.86356 12.0274 6.86313C9.20197 6.85626 6.37629 6.85526 3.55033 6.86013C3.36868 6.8601 3.18719 6.87086 3.00681 6.89235C2.20142 6.99116 1.58437 7.57973 1.46268 8.37538C1.44172 8.55587 1.43453 8.73769 1.44118 8.91927C1.44118 12.7068 1.44118 16.4944 1.44118 20.2822V20.8089H0.0578737C0.0484137 20.7126 0.0286337 20.6061 0.0286337 20.5C0.0269138 16.4616 0.0269138 12.4222 0.0286337 8.38182C0.0329337 6.83091 1.32766 5.43252 2.87738 5.41318C6.13635 5.3728 9.39575 5.39213 12.6547 5.40244C14.0406 5.40674 15.5357 6.66036 15.5422 8.42607C15.5499 11.4033 15.5448 14.3805 15.5448 17.3573C15.5448 18.3638 15.5448 19.3702 15.5448 20.3767V20.8252Z" fill="white"/>
<path d="M32.3807 13.1048C32.3377 13.9266 32.354 14.7562 32.2435 15.5686C31.9025 18.0728 29.7783 20.2767 27.2843 20.7472C26.776 20.8368 26.2614 20.8862 25.7453 20.895C24.9068 20.9186 24.0683 20.9061 23.2281 20.9001C20.068 20.8773 17.6592 18.6966 17.012 16.0347C16.8971 15.5312 16.8338 15.0173 16.8233 14.501C16.7936 13.6074 16.8121 12.7125 16.8151 11.8181C16.8258 8.58348 19.1431 5.89882 22.3492 5.44257C22.9125 5.36223 23.4939 5.39145 24.0666 5.39961C24.4188 5.40348 24.5826 5.60153 24.6045 5.96112C24.6084 6.03071 24.6071 6.10074 24.6045 6.17077C24.5925 6.58492 24.4067 6.78727 23.9922 6.80832C23.699 6.82335 23.4048 6.81562 23.1111 6.81218C21.0583 6.78727 18.7282 8.43054 18.3145 10.958C18.2626 11.303 18.2365 11.6513 18.2362 12.0002C18.2251 12.8109 18.2281 13.6216 18.2337 14.4318C18.241 15.594 18.6456 16.7187 19.3803 17.6197C20.115 18.5206 21.1358 19.1437 22.2735 19.3857C22.5884 19.4513 22.909 19.486 23.2307 19.4893C24.1393 19.5026 25.0487 19.5052 25.9577 19.4914C28.1378 19.4592 30.0238 18.0913 30.6744 16.0446C30.8141 15.5927 30.8924 15.1241 30.9071 14.6514C30.9415 13.6461 30.907 12.639 30.9208 11.6329C30.9324 10.7148 30.649 9.90498 30.0905 9.18409C30.0393 9.11793 29.9825 9.0552 29.9378 8.98432C29.6661 8.55212 29.8815 8.08427 30.3859 8.02112C30.7458 7.97601 31.0455 8.08298 31.2609 8.39317C31.9137 9.33145 32.3303 10.3505 32.3359 11.5109C32.339 12.0419 32.3359 12.5729 32.3359 13.1039L32.3807 13.1048Z" fill="white"/>
<path d="M66.5644 10.4443C66.6189 12.4134 66.6735 14.3824 66.7283 16.3515C66.7618 17.5802 66.7919 18.8093 66.828 20.0385C66.8379 20.3723 66.742 20.6485 66.4333 20.8092C65.9633 21.0532 65.4395 20.7512 65.4133 20.2077C65.3746 19.4121 65.3557 18.616 65.3351 17.8199C65.2536 14.7055 65.1738 11.5911 65.0955 8.47666C65.05 6.63319 65.0095 4.78971 64.9665 2.9458C64.9498 2.23393 64.918 1.52163 64.9141 0.809329C64.9111 0.315702 65.2581 0.0360226 65.7362 0.106479C65.8758 0.124938 66.0061 0.186428 66.109 0.282381C66.2119 0.378335 66.2822 0.50397 66.3103 0.641779C66.3216 0.710636 66.3266 0.780376 66.3253 0.850143L66.5756 10.2767C66.5756 10.3326 66.5756 10.3884 66.5756 10.4443H66.5644Z" fill="white"/>
</g>
<defs>
<clipPath id="clip0_1174_534227">
<rect width="86" height="21" fill="white"/>
</clipPath>
</defs>
</svg>
