<svg width="19" height="18" viewBox="0 0 19 18" fill="none" xmlns="http://www.w3.org/2000/svg">
<g clip-path="url(#clip0_8224_9394)">
<path d="M0.5 0H18.5V18H0.5V0Z" fill="#6273E9"/>
<g filter="url(#filter0_d_8224_9394)">
<path d="M11.0313 7.33662C9.89068 6.86891 9.26562 6.50493 9.26562 5.93321C9.26562 5.4479 9.625 5.1708 10.2657 5.1708C11.4375 5.1708 12.6406 5.67333 13.4688 6.12372L13.9375 2.91828C13.2812 2.57171 11.9375 2 10.0781 2C8.76568 2 7.67191 2.38111 6.89068 3.09157C6.07803 3.83657 5.65627 4.91092 5.65627 6.21041C5.65627 8.56684 6.95315 9.57181 9.0625 10.4208C10.4219 10.958 10.875 11.3392 10.875 11.9282C10.875 12.5 10.4374 12.8292 9.64062 12.8292C8.65618 12.8292 7.03132 12.2921 5.96871 11.5991L5.5 14.8392C6.40618 15.411 8.09368 16 9.84382 16C11.2344 16 12.3906 15.6362 13.1719 14.9432C14.0468 14.1807 14.5 13.0545 14.5 11.5991C14.5 9.1906 13.1719 8.18563 11.0312 7.33672L11.0313 7.33662Z" fill="white"/>
</g>
</g>
<defs>
<filter id="filter0_d_8224_9394" x="-43.3281" y="-46.8281" width="145.719" height="150.719" filterUnits="userSpaceOnUse" color-interpolation-filters="sRGB">
<feFlood flood-opacity="0" result="BackgroundImageFix"/>
<feColorMatrix in="SourceAlpha" type="matrix" values="0 0 0 0 0 0 0 0 0 0 0 0 0 0 0 0 0 0 127 0" result="hardAlpha"/>
<feOffset dx="19.5312" dy="19.5312"/>
<feGaussianBlur stdDeviation="34.1797"/>
<feColorMatrix type="matrix" values="0 0 0 0 0 0 0 0 0 0 0 0 0 0 0 0 0 0 0.185125 0"/>
<feBlend mode="normal" in2="BackgroundImageFix" result="effect1_dropShadow_8224_9394"/>
<feBlend mode="normal" in="SourceGraphic" in2="effect1_dropShadow_8224_9394" result="shape"/>
</filter>
<clipPath id="clip0_8224_9394">
<rect x="0.5" width="18" height="18" rx="2" fill="white"/>
</clipPath>
</defs>
</svg>
