<svg width="29" height="29" viewBox="0 0 29 29" fill="none" xmlns="http://www.w3.org/2000/svg">
<path d="M20.2775 4.0686C20.5848 3.76139 20.9495 3.5177 21.3509 3.35144C21.7522 3.18518 22.1824 3.09961 22.6169 3.09961C23.0514 3.09961 23.4816 3.18518 23.8829 3.35144C24.2843 3.5177 24.649 3.76139 24.9562 4.0686C25.2635 4.37581 25.5071 4.74052 25.6734 5.1419C25.8397 5.54329 25.9252 5.97349 25.9252 6.40795C25.9252 6.84241 25.8397 7.27261 25.6734 7.674C25.5071 8.07538 25.2635 8.44009 24.9562 8.7473L9.16563 24.5379L2.73242 26.2924L4.48693 19.8592L20.2775 4.0686Z" stroke="#09A778" stroke-width="1.55957" stroke-linecap="round" stroke-linejoin="round"/>
</svg>
