<svg width="29" height="29" viewBox="0 0 29 29" fill="none" xmlns="http://www.w3.org/2000/svg">
<path d="M3.90234 7.37549H6.24169H24.9565" stroke="#FF6666" stroke-opacity="0.8" stroke-width="1.55957" stroke-linecap="round" stroke-linejoin="round"/>
<path d="M22.6176 7.37548V23.7509C22.6176 24.3714 22.3712 24.9664 21.9325 25.4051C21.4937 25.8438 20.8987 26.0903 20.2783 26.0903H8.58154C7.9611 26.0903 7.36608 25.8438 6.92737 25.4051C6.48865 24.9664 6.24219 24.3714 6.24219 23.7509V7.37548M9.75121 7.37548V5.03613C9.75121 4.41569 9.99768 3.82067 10.4364 3.38196C10.8751 2.94324 11.4701 2.69678 12.0906 2.69678H16.7693C17.3897 2.69678 17.9847 2.94324 18.4234 3.38196C18.8621 3.82067 19.1086 4.41569 19.1086 5.03613V7.37548" stroke="#FF6666" stroke-opacity="0.8" stroke-width="1.55957" stroke-linecap="round" stroke-linejoin="round"/>
<path d="M12.0898 13.2239V20.2419" stroke="#FF6666" stroke-opacity="0.8" stroke-width="1.55957" stroke-linecap="round" stroke-linejoin="round"/>
<path d="M16.7686 13.2239V20.2419" stroke="#FF6666" stroke-opacity="0.8" stroke-width="1.55957" stroke-linecap="round" stroke-linejoin="round"/>
</svg>
