<svg width="36" height="36" viewBox="0 0 36 36" fill="none" xmlns="http://www.w3.org/2000/svg">
<path d="M15 19.4999C15.6442 20.3611 16.466 21.0737 17.4098 21.5894C18.3536 22.105 19.3973 22.4116 20.47 22.4884C21.5427 22.5653 22.6194 22.4105 23.627 22.0346C24.6347 21.6587 25.5497 21.0706 26.31 20.3099L30.81 15.8099C32.1762 14.3954 32.9321 12.5009 32.9151 10.5344C32.898 8.56796 32.1092 6.68687 30.7186 5.29631C29.3281 3.90575 27.447 3.11698 25.4805 3.09989C23.514 3.0828 21.6195 3.83876 20.205 5.20495L17.625 7.76995" stroke="#E981FA" stroke-width="2" stroke-linecap="round" stroke-linejoin="round"/>
<path d="M20.9993 16.5001C20.3551 15.6389 19.5333 14.9263 18.5895 14.4107C17.6457 13.895 16.6021 13.5884 15.5293 13.5116C14.4566 13.4348 13.3799 13.5895 12.3723 13.9654C11.3647 14.3413 10.4497 14.9295 9.68932 15.6901L5.18932 20.1901C3.82314 21.6046 3.06718 23.4991 3.08427 25.4656C3.10136 27.4321 3.89012 29.3132 5.28068 30.7037C6.67124 32.0943 8.55234 32.8831 10.5188 32.9001C12.4853 32.9172 14.3798 32.1613 15.7943 30.7951L18.3593 28.2301" stroke="#E981FA" stroke-width="2" stroke-linecap="round" stroke-linejoin="round"/>
</svg>
