<svg width="26" height="25" viewBox="0 0 26 25" fill="none" xmlns="http://www.w3.org/2000/svg">
<path d="M9.87508 4.16675H5.70841C5.13312 4.16675 4.66675 4.63312 4.66675 5.20841V9.37508C4.66675 9.95038 5.13312 10.4167 5.70841 10.4167H9.87508C10.4504 10.4167 10.9167 9.95038 10.9167 9.37508V5.20841C10.9167 4.63312 10.4504 4.16675 9.87508 4.16675Z" stroke="#3077F3" stroke-width="2.08333" stroke-linecap="round" stroke-linejoin="round"/>
<path d="M7.79175 17.7083V17.7187" stroke="#3077F3" stroke-width="2.08333" stroke-linecap="round" stroke-linejoin="round"/>
<path d="M20.2918 4.16675H16.1252C15.5499 4.16675 15.0835 4.63312 15.0835 5.20841V9.37508C15.0835 9.95038 15.5499 10.4167 16.1252 10.4167H20.2918C20.8671 10.4167 21.3335 9.95038 21.3335 9.37508V5.20841C21.3335 4.63312 20.8671 4.16675 20.2918 4.16675Z" stroke="#3077F3" stroke-width="2.08333" stroke-linecap="round" stroke-linejoin="round"/>
<path d="M7.79175 7.29175V7.30216" stroke="#3077F3" stroke-width="2.08333" stroke-linecap="round" stroke-linejoin="round"/>
<path d="M9.87508 14.5835H5.70841C5.13312 14.5835 4.66675 15.0499 4.66675 15.6252V19.7918C4.66675 20.3671 5.13312 20.8335 5.70841 20.8335H9.87508C10.4504 20.8335 10.9167 20.3671 10.9167 19.7918V15.6252C10.9167 15.0499 10.4504 14.5835 9.87508 14.5835Z" stroke="#3077F3" stroke-width="2.08333" stroke-linecap="round" stroke-linejoin="round"/>
<path d="M18.2083 7.29175V7.30216" stroke="#3077F3" stroke-width="2.08333" stroke-linecap="round" stroke-linejoin="round"/>
<path d="M15.0835 14.5835H18.2085" stroke="#3077F3" stroke-width="2.08333" stroke-linecap="round" stroke-linejoin="round"/>
<path d="M21.3333 14.5835V14.5939" stroke="#3077F3" stroke-width="2.08333" stroke-linecap="round" stroke-linejoin="round"/>
<path d="M15.0835 14.5835V17.7085" stroke="#3077F3" stroke-width="2.08333" stroke-linecap="round" stroke-linejoin="round"/>
<path d="M15.0835 20.8333H18.2085" stroke="#3077F3" stroke-width="2.08333" stroke-linecap="round" stroke-linejoin="round"/>
<path d="M18.2083 17.7083H21.3333" stroke="#3077F3" stroke-width="2.08333" stroke-linecap="round" stroke-linejoin="round"/>
<path d="M21.3333 17.7083V20.8333" stroke="#3077F3" stroke-width="2.08333" stroke-linecap="round" stroke-linejoin="round"/>
</svg>
