<svg width="76" height="19" viewBox="0 0 76 19" fill="none" xmlns="http://www.w3.org/2000/svg">
<g clip-path="url(#clip0_795_39786)">
<path d="M75.4775 1.28897C75.3335 1.62919 75.0699 1.73013 74.717 1.72861C72.767 1.71992 70.8148 1.72446 68.8633 1.72446H68.3814C68.3773 1.88285 68.3701 2.02688 68.3701 2.16675C68.3701 7.25749 68.3701 12.3473 68.3701 17.4363C68.3701 17.5592 68.3769 17.6828 68.3664 17.8049C68.3608 17.9666 68.2932 18.1197 68.1777 18.2321C68.0623 18.3445 67.9081 18.4073 67.7476 18.4073C67.5872 18.4073 67.433 18.3445 67.3175 18.2321C67.2021 18.1197 67.1345 17.9666 67.1289 17.8049C67.1184 17.6828 67.1236 17.5596 67.1236 17.4363V1.72446H66.6988C64.7595 1.72446 62.8204 1.72446 60.8814 1.72446C60.7596 1.72997 60.6375 1.72656 60.5162 1.71425C60.1877 1.66435 59.9413 1.35021 59.9716 1.0338C60.002 0.717396 60.2506 0.491715 60.5926 0.478484C60.6538 0.475838 60.7145 0.478484 60.7756 0.478484C65.4219 0.478484 70.0683 0.476216 74.7148 0.47168C75.0523 0.47168 75.3046 0.552577 75.4775 0.846681V1.28897Z" fill="#A7DBEE"/>
<path d="M55.1338 10.6649C55.1485 10.573 55.1585 10.4804 55.1638 10.3875C55.1638 9.36679 55.1732 8.34612 55.1589 7.32545C55.1592 7.09282 55.1112 6.86271 55.0179 6.64992C54.7674 6.12295 54.2987 5.9502 53.7471 5.95662C52.7956 5.96721 51.8442 5.97767 50.8929 5.988C50.4662 5.99216 50.0391 5.99443 49.6123 5.988C49.1646 5.98346 49.0453 5.86174 49.0397 5.4255C49.0314 4.78626 49.0798 4.73711 49.7263 4.73711C51.0804 4.73711 52.4346 4.74278 53.7887 4.73447C54.4063 4.73031 54.9718 4.86715 55.4597 5.2637C56.0424 5.73812 56.3769 6.34939 56.3859 7.10771C56.4006 8.3741 56.3976 9.64048 56.3859 10.9076C56.3814 11.5299 55.9903 11.9049 55.3626 11.9067C53.8374 11.9117 52.3127 11.9086 50.7876 11.9086H44.1317C44.1143 11.9648 44.1017 12.0223 44.0942 12.0806C44.0882 13.1134 44.0634 14.1469 44.0867 15.1804C44.0949 15.6026 44.2373 16.0109 44.4929 16.3453C44.7486 16.6797 45.104 16.9225 45.5068 17.0381C45.7765 17.1127 46.0552 17.149 46.3348 17.1458C49.3971 17.1534 52.4596 17.155 55.5223 17.1507C55.6322 17.1507 55.7421 17.1462 55.8516 17.1537C56.1493 17.1745 56.3548 17.3609 56.4039 17.6478C56.4508 17.9215 56.3124 18.2149 56.0612 18.3169C55.9363 18.3639 55.8037 18.3868 55.6704 18.3846C52.3887 18.3881 49.1072 18.3881 45.8259 18.3846C44.2836 18.3804 43.0243 17.2036 42.8796 15.6602C42.8627 15.4772 42.8582 15.292 42.8578 15.1079C42.8563 13.7674 42.8563 12.4269 42.8578 11.0864V10.6649H55.1338Z" fill="white"/>
<path d="M25.8976 4.7429C26.495 4.7429 27.0931 4.72778 27.6901 4.74631C28.7858 4.78033 29.561 5.32695 29.9986 6.32721C30.5345 7.55125 31.0381 8.79004 31.556 10.022C32.3967 12.0233 33.2378 14.0243 34.0793 16.0251C34.1168 16.1154 34.1543 16.2061 34.1948 16.2954C34.46 16.8787 34.9208 17.178 35.5475 17.1988C36.1411 17.2189 36.6102 16.9686 36.9293 16.4575C37.0049 16.3316 37.0694 16.1993 37.1221 16.0621C38.3693 12.9684 39.6152 9.87422 40.8597 6.77971C41.2842 5.72123 42.0361 5.05137 43.1408 4.80074C43.3756 4.74782 43.6246 4.74253 43.8676 4.74139C44.9896 4.73534 46.1116 4.73471 47.2336 4.7395C47.7155 4.7395 47.7995 4.83363 47.7998 5.33149C47.8037 5.41745 47.802 5.50358 47.7946 5.5893C47.7668 5.79722 47.6423 5.91554 47.4338 5.93595C47.3495 5.94427 47.2632 5.9386 47.1781 5.9386C46.178 5.9386 45.1775 5.95599 44.1781 5.93368C43.2222 5.91289 42.5247 6.31171 42.1133 7.17134C41.7638 7.90017 41.4533 8.64866 41.1406 9.39488C40.1356 11.7923 39.1356 14.1919 38.1406 16.5936C37.835 17.3308 37.3621 17.8929 36.6132 18.1908C35.2336 18.7397 33.7197 18.1114 33.1118 16.7165C32.6502 15.661 32.2193 14.5916 31.7753 13.5275C30.8968 11.4226 30.0181 9.31827 29.1391 7.21443C29.0914 7.08826 29.035 6.9656 28.9703 6.84737C28.6703 6.33968 28.2406 6.01874 27.6436 5.99719C27.0466 5.97564 26.4488 5.99001 25.8515 5.99001C25.205 5.99001 24.5588 5.99795 23.9123 5.99001C23.4886 5.98472 23.2962 5.78966 23.288 5.3916C23.2786 4.9304 23.4507 4.74706 23.9221 4.74215C24.5802 4.73572 25.2391 4.74215 25.8976 4.74215V4.7429Z" fill="white"/>
<path d="M14.0573 18.3241H12.8217V17.8859C12.8217 14.4792 12.8217 11.0724 12.8217 7.66564C12.8217 6.92055 12.4137 6.32062 11.748 6.12481C11.5073 6.05411 11.2433 6.03899 10.9898 6.03862C8.52578 6.03257 6.06153 6.03168 3.59703 6.03597C3.43862 6.03595 3.28034 6.04542 3.12303 6.06432C2.42066 6.15127 1.88253 6.66916 1.77641 7.36927C1.75813 7.52808 1.75186 7.68807 1.75766 7.84785C1.75766 11.1805 1.75766 14.5133 1.75766 17.8462V18.3097H0.551283C0.543033 18.225 0.525783 18.1313 0.525783 18.0379C0.524283 14.4845 0.524283 10.9301 0.525783 7.37494C0.529533 6.01026 1.65866 4.77979 3.01016 4.76278C5.85228 4.72725 8.69478 4.74426 11.5369 4.75333C12.7455 4.75711 14.0494 5.86019 14.055 7.41387C14.0618 10.0336 14.0573 12.6533 14.0573 15.2726C14.0573 16.1582 14.0573 17.0438 14.0573 17.9294V18.3241Z" fill="white"/>
<path d="M28.7397 11.5296C28.7022 12.2528 28.7165 12.9828 28.6201 13.6976C28.3227 15.9011 26.4702 17.8404 24.2952 18.2543C23.8519 18.3332 23.4032 18.3767 22.9531 18.3844C22.2218 18.4052 21.4906 18.3942 20.7578 18.3889C18.002 18.3689 15.9012 16.45 15.3368 14.1078C15.2366 13.6647 15.1814 13.2125 15.1722 12.7582C15.1463 11.9719 15.1625 11.1845 15.1651 10.3974C15.1745 7.55129 17.1953 5.18901 19.9913 4.78755C20.4826 4.71685 20.9896 4.74256 21.4891 4.74974C21.7962 4.75314 21.9391 4.92741 21.9582 5.24382C21.9616 5.30506 21.9605 5.36668 21.9582 5.4283C21.9477 5.79271 21.7857 5.97076 21.4242 5.98929C21.1685 6.00252 20.912 5.99571 20.6558 5.99269C18.8656 5.97076 16.8335 7.41671 16.4727 9.64063C16.4275 9.94421 16.4047 10.2507 16.4045 10.5577C16.3947 11.2711 16.3973 11.9844 16.4022 12.6973C16.4086 13.7199 16.7614 14.7096 17.4022 15.5024C18.0429 16.2952 18.9332 16.8434 19.9253 17.0564C20.2 17.1141 20.4796 17.1446 20.7601 17.1475C21.5525 17.1592 22.3456 17.1614 23.1383 17.1494C25.0396 17.121 26.6843 15.9174 27.2517 14.1165C27.3736 13.7188 27.4418 13.3065 27.4546 12.8905C27.4846 12.0059 27.4546 11.1198 27.4666 10.2345C27.4767 9.42667 27.2296 8.71409 26.7425 8.07977C26.6978 8.02155 26.6483 7.96636 26.6093 7.90399C26.3723 7.52369 26.5602 7.11202 27.0001 7.05645C27.314 7.01676 27.5753 7.11089 27.7632 7.38382C28.3325 8.20943 28.6958 9.10611 28.7007 10.1272C28.7033 10.5944 28.7007 11.0616 28.7007 11.5289L28.7397 11.5296Z" fill="white"/>
<path d="M58.55 9.18892C58.5975 10.9215 58.6451 12.6541 58.6929 14.3868C58.7221 15.4679 58.7484 16.5494 58.7799 17.631C58.7885 17.9247 58.7049 18.1678 58.4356 18.3092C58.0257 18.5239 57.569 18.2581 57.5461 17.7799C57.5124 17.0798 57.4959 16.3793 57.4779 15.6789C57.4069 12.9384 57.3372 10.198 57.269 7.45756C57.2292 5.83545 57.194 4.21335 57.1565 2.59086C57.1419 1.96447 57.1141 1.33771 57.1107 0.71094C57.1081 0.276588 57.4107 0.0304939 57.8277 0.0924901C57.9494 0.108732 58.0631 0.162838 58.1528 0.247269C58.2425 0.3317 58.3039 0.442249 58.3284 0.56351C58.3382 0.624098 58.3426 0.685463 58.3415 0.746852L58.5597 9.04148C58.5597 9.09063 58.5597 9.13977 58.5597 9.18892H58.55Z" fill="white"/>
</g>
<defs>
<clipPath id="clip0_795_39786">
<rect width="75" height="18.4783" fill="white" transform="translate(0.5)"/>
</clipPath>
</defs>
</svg>
