<svg width="45" height="59" viewBox="0 0 45 59" fill="none" xmlns="http://www.w3.org/2000/svg">
<path d="M14.0629 16.3308V16.338C14.2878 16.338 14.5128 16.3402 14.7377 16.3374C14.9649 16.3346 15.0343 16.2303 14.9821 16.0098C14.9448 15.8522 14.9259 15.6897 14.9075 15.5284C14.888 15.356 14.8867 15.1813 14.8629 15.0096C14.828 14.7574 14.7366 14.6973 14.4795 14.7035C13.9073 14.7172 13.3349 14.7245 12.7626 14.7315C12.4462 14.7353 12.1298 14.7289 11.8136 14.7356C11.6613 14.7389 11.5759 14.8375 11.5885 14.9862C11.6208 15.3675 11.6557 15.7486 11.6959 16.1291C11.7139 16.2997 11.8227 16.3737 11.9967 16.3542C12.0879 16.344 12.1797 16.3322 12.2712 16.3318C12.8685 16.3298 13.4657 16.3308 14.0629 16.3308ZM29.7131 14.6884C29.7131 14.6855 29.7131 14.6826 29.7131 14.6797C29.5955 14.6797 29.4776 14.6755 29.3603 14.6806C29.1746 14.6887 29.0845 14.8027 29.1097 14.9874C29.1595 15.3514 29.2099 15.7152 29.2579 16.0794C29.2837 16.275 29.3531 16.3369 29.5483 16.3365C30.4428 16.3348 31.3372 16.3338 32.2317 16.3332C32.4742 16.333 32.5342 16.2658 32.5049 16.0282C32.4599 15.6636 32.4143 15.2992 32.3736 14.9342C32.3517 14.7378 32.2895 14.6773 32.0867 14.6795C31.8981 14.6816 31.7096 14.6876 31.521 14.688C30.9184 14.6892 30.3157 14.6884 29.7131 14.6884ZM26.6946 16.3367C26.6946 16.3286 26.6946 16.3205 26.6946 16.3124C27.0938 16.3124 27.4929 16.3129 27.8921 16.312C28.017 16.3117 28.1278 16.2771 28.1173 16.1257C28.0893 15.7175 28.0569 15.3096 28.0155 14.9027C27.9999 14.7483 27.8935 14.6777 27.7328 14.6847C27.6255 14.6893 27.5183 14.7024 27.4112 14.7018C26.7988 14.6986 26.1865 14.691 25.5742 14.6881C25.3908 14.6872 25.2065 14.7094 25.0241 14.698C24.7833 14.683 24.6911 14.7495 24.717 14.9899C24.7581 15.3707 24.8155 15.7499 24.8711 16.129C24.892 16.2721 24.9853 16.3375 25.1299 16.3372C25.6514 16.336 26.173 16.3367 26.6946 16.3367ZM22.3127 16.3153C22.3127 16.3213 22.3127 16.3273 22.3128 16.3333C22.7163 16.3333 23.1199 16.3327 23.5234 16.3336C23.6919 16.334 23.7551 16.2671 23.7393 16.0967C23.7045 15.7202 23.6692 15.3439 23.6331 14.9676C23.6128 14.7563 23.5391 14.6928 23.3273 14.6912C22.9147 14.688 22.502 14.6775 22.0894 14.6787C21.5986 14.6802 21.1078 14.6876 20.6172 14.6984C20.373 14.7038 20.2773 14.8474 20.3326 15.0879C20.3714 15.2565 20.4019 15.4276 20.4237 15.5992C20.4461 15.7764 20.4495 15.956 20.4685 16.1337C20.4877 16.3114 20.5949 16.3818 20.7684 16.3428C20.8228 16.3306 20.8786 16.3167 20.9338 16.3164C21.3934 16.3143 21.8531 16.3153 22.3127 16.3153ZM17.6939 14.6721C17.6938 14.684 17.6937 14.696 17.6937 14.7079C17.1982 14.7079 16.7026 14.7047 16.2071 14.7094C15.9769 14.7116 15.9285 14.7885 15.9583 15.0209C16.001 15.3544 16.0368 15.6891 16.0654 16.0241C16.084 16.2424 16.2081 16.368 16.4334 16.3652C16.5151 16.3643 16.5966 16.3508 16.6782 16.3509C17.373 16.3524 18.0678 16.3561 18.7626 16.358C18.9056 16.3584 19.0491 16.3589 19.1918 16.3504C19.3525 16.3409 19.4245 16.243 19.4036 16.0973C19.3491 15.7192 19.2941 15.3411 19.2516 14.9616C19.2248 14.7224 19.1631 14.6663 18.9203 14.6702C18.5116 14.6768 18.1027 14.6721 17.6939 14.6721ZM10.3384 16.3628C10.5243 16.3697 10.6139 16.2634 10.5964 16.0708C10.5729 15.8113 10.5568 15.5512 10.5351 15.2915C10.5236 15.1542 10.5157 15.0156 10.4903 14.8806C10.4673 14.7583 10.3899 14.6839 10.253 14.6868C9.73668 14.6978 9.73966 14.7112 9.22318 14.7148C8.79078 14.7179 8.35787 14.718 7.9259 14.7008C7.7176 14.6926 7.59446 14.7883 7.61497 14.9986C7.6254 15.1053 7.65019 15.2106 7.65831 15.3173C7.67694 15.562 7.68672 15.8073 7.70513 16.052C7.71934 16.2411 7.80957 16.3395 7.97562 16.3436C8.34815 16.3529 8.72083 16.3602 9.09351 16.362C9.6816 16.365 9.75031 16.3628 10.3384 16.3628ZM33.0165 19.9513C31.8596 19.9789 6.34856 19.9107 5.70945 19.9107C5.32119 19.9107 4.93314 19.9487 4.58192 20.1525C4.13255 20.4134 3.79626 20.7483 3.76161 21.3033C3.7569 21.3789 3.734 21.4541 3.71428 21.5281C3.61543 21.8995 3.64014 22.2754 3.73233 22.6369C3.78031 22.8253 3.91186 23.0016 4.03558 23.16C4.30831 23.509 4.65121 23.7878 5.09223 23.8698C5.45984 23.9383 18.2991 24.0934 18.5285 24.101C18.6344 24.1045 18.6742 24.1612 18.7036 24.2573C19.4071 39.3981 25.615 46.699 25.3598 46.7042C25.1089 46.7093 24.858 46.7139 24.6072 46.7193C24.4039 46.7238 24.3647 46.7873 24.4421 46.9796C24.5665 47.288 24.6962 47.5944 24.8107 47.9065C24.9109 48.1796 24.9911 48.4599 25.0846 48.7355C25.1239 48.8515 25.1792 48.9622 25.2195 49.0779C25.2675 49.216 25.22 49.2888 25.0754 49.2925C24.5174 49.3065 23.9594 49.3161 23.4014 49.3285C23.285 49.3311 23.2097 49.2805 23.1619 49.174C22.8712 48.5249 22.5782 47.8769 22.286 47.2284C22.2587 47.1678 22.2294 47.1078 22.2062 47.0456C22.1452 46.8819 22.0263 46.8252 21.8571 46.8338C21.3202 46.8611 20.783 46.8809 20.246 46.9072C19.525 46.9425 18.8042 46.9815 18.0834 47.0181C17.8396 47.0305 17.8066 47.0932 17.922 47.3106C18.1066 47.6586 18.2903 48.0071 18.4674 48.3589C18.5414 48.506 18.6488 48.5698 18.8113 48.5598C19.3376 48.5275 19.8641 48.4981 20.3906 48.4682C20.6993 48.4507 20.8001 48.51 20.9339 48.7868C21.0832 49.0955 21.232 49.4042 21.3803 49.7133C21.3957 49.7454 21.4081 49.7793 21.4189 49.8134C21.4968 50.0598 21.4337 50.1449 21.1773 50.1548C19.9189 50.2034 18.6604 50.2537 17.402 50.3045C17.2266 50.3115 17.19 50.3767 17.2762 50.5276C17.4564 50.843 17.6399 51.1566 17.8211 51.4714C17.9665 51.7239 17.9085 51.8443 17.6149 51.8576C17.078 51.882 16.5404 51.8931 16.0031 51.9081C15.8033 51.9138 15.661 51.8207 15.5714 51.6441C15.155 50.8231 14.7301 50.0062 14.3251 49.1795C14.0484 48.6146 13.7994 48.0363 13.5384 47.4637C13.5214 47.4266 13.5042 47.3888 13.4939 47.3495C13.4569 47.2086 13.5064 47.1464 13.6498 47.1399C14.8707 47.0848 16.0917 47.0287 17.3126 46.9726C17.3534 46.9707 17.3948 46.9687 17.4348 46.961C17.5814 46.9323 17.6196 46.8526 17.5533 46.7163C17.2023 45.9938 16.8471 45.2733 16.5026 44.5478C16.4246 44.3838 16.3914 44.199 16.323 44.0297C16.2398 43.824 16.0846 43.7186 15.8538 43.7338C15.3226 43.7688 14.7909 43.7973 14.2598 43.8343C14.0446 43.8492 14.0135 43.9226 14.1098 44.1112C14.2796 44.4438 14.4432 44.7794 14.6069 45.115C14.7108 45.3278 14.6297 45.5066 14.3937 45.5502C14.2083 45.5844 14.0175 45.5918 13.8287 45.6041C13.5732 45.6206 12.1877 45.6231 11.9328 45.6456C6.59883 36.8085 7.25004 27.4777 7.00869 27.4835C0.0359642 27.4835 0.13881 22.992 0.0464734 22.61C-0.0196264 22.3364 -0.699251 16.3653 6.41437 16.3765C6.64188 16.3654 6.69566 16.324 6.67805 16.0936C6.64768 15.6959 6.61789 15.2981 6.58702 14.9004C6.57498 14.7455 6.49591 14.6692 6.34248 14.6604C6.34248 14.6604 6.30558 0.016241 6.34269 0.00696388C6.39103 -0.00513991 10.3949 0.00218035 12.5251 0.00232531C12.7477 0.00232531 12.7608 0.00181796 12.7766 0.220773C12.8118 0.708622 13.2929 6.65651 20.2729 6.65651C26.4181 6.65651 26.892 0.301659 26.8855 0.152572C26.8809 0.047189 26.8967 -0.00557475 27.0103 0.00268772C27.046 0.00529692 27.082 0.00225276 27.1178 0.00225276C29.2788 0.00225276 33.8266 0.00232531 33.8266 0.00232531C33.2753 9.38327 33.9081 14.6652 33.6267 14.713C33.5083 14.7331 33.454 14.7941 33.4624 14.9106C33.4903 15.2932 33.5115 15.6766 33.5517 16.058C33.5752 16.2808 33.703 16.3762 33.9267 16.3757C41.5589 16.3757 41.5794 21.3238 41.5742 21.3673C41.5742 27.3114 36.1439 27.5712 35.9707 27.5785C35.8406 27.584 35.3407 27.6385 35.3415 27.7677C35.4175 39.045 41.1579 46.411 40.9859 46.4131C40.1666 46.4234 39.3475 46.4336 38.5283 46.444C38.4925 46.4444 38.4563 46.4436 38.4209 46.448C38.2712 46.4665 38.2358 46.5283 38.294 46.6688C38.6445 47.5146 38.995 48.3603 39.346 49.2059C39.3695 49.2627 39.4 49.3167 39.4207 49.3743C39.4649 49.4973 39.5506 49.5485 39.6797 49.5458C40.559 49.5269 41.4386 49.5134 42.3178 49.4892C42.4831 49.4847 42.5924 49.5331 42.6619 49.6835C43.0974 50.6266 43.5362 51.568 43.9707 52.5115C44.0647 52.7155 44.0035 52.8142 43.7778 52.8197C43.5745 52.8248 43.3708 52.8059 43.1675 52.81C42.9396 52.8147 42.712 52.8332 42.4843 52.8457C42.0559 52.8694 41.6276 52.8954 41.1991 52.9158C40.9548 52.9274 40.8942 53.0043 40.9839 53.2355C41.1022 53.5406 41.2336 53.8407 41.3594 54.143C41.381 54.1949 41.4081 54.2452 41.4241 54.2986C41.4771 54.4759 41.4147 54.5629 41.2273 54.5694C40.905 54.5806 40.5824 54.587 40.2601 54.5975C40.1271 54.6019 39.994 54.608 39.8616 54.6204C39.7116 54.6346 39.5949 54.5836 39.534 54.4464C39.3391 54.0068 39.1457 53.5663 38.9616 53.1221C38.8991 52.9712 38.9773 52.8788 39.1649 52.8719C39.5845 52.8564 40.0044 52.8498 40.4241 52.8372C40.705 52.8288 40.7362 52.7654 40.6272 52.5092C40.2528 51.6287 39.8819 50.7467 39.518 49.8617C39.4514 49.6996 39.3581 49.6305 39.1834 49.6377C38.1859 49.6788 37.1882 49.7144 36.1906 49.7517C36.1446 49.7534 36.0984 49.7525 36.0524 49.7553C35.8232 49.7691 35.6759 49.6667 35.5918 49.4527C35.4046 48.9766 35.2113 48.5029 35.0185 48.0289C34.8372 47.5835 34.6531 47.1391 34.4706 46.6941C34.4139 46.5561 34.3165 46.4865 34.1624 46.4904C33.0413 46.5183 31.9203 46.5424 30.7992 46.5711C30.544 46.5777 30.508 46.6498 30.6194 46.871C30.6928 47.0167 30.7563 47.1678 30.8147 47.3202C30.8559 47.4277 30.796 47.496 30.6923 47.5004C30.406 47.5123 30.1187 47.522 29.8327 47.5107C29.7642 47.5081 29.6703 47.4348 29.6366 47.3692C29.2538 46.623 28.8802 45.8719 28.505 45.1216C28.4868 45.0853 28.4719 45.0462 28.4628 45.0067C28.438 44.8989 28.4739 44.8414 28.5943 44.8419C28.8349 44.843 29.0756 44.8375 29.3161 44.8349C29.5637 44.8321 29.6729 44.678 29.5784 44.4478C29.4483 44.1307 29.312 43.8159 29.1706 43.5037C29.0735 43.2893 28.9376 43.2171 28.7064 43.2299C28.461 43.2435 28.2154 43.2524 27.9701 43.2665C27.8144 43.2754 22.9796 35.0429 23.0614 24.2C23.0614 24.2 35.7948 24.0459 36.1629 24.0264C36.7515 23.9952 37.252 23.7609 37.6088 23.2934C37.8732 22.9471 38.0006 22.5339 38.0119 22.0906C38.0165 21.9074 38.0353 21.7244 38.0537 21.5419C38.0869 21.2126 37.9514 20.9425 37.7557 20.6968C37.6197 20.526 37.4842 20.351 37.3244 20.2041C37.1279 20.0232 36.8809 19.9267 36.6107 19.9269C35.602 19.9276 33.0166 19.9473 33.0165 19.9513Z" fill="#A7DBEE"/>
<path d="M30.1476 53.2319C29.2679 53.2613 28.3883 53.292 27.5085 53.3194C27.1762 53.3298 27.0531 53.2448 26.9226 52.9362C26.7655 52.5649 26.6077 52.1938 26.4478 51.8236C26.3759 51.657 26.4322 51.5708 26.6353 51.5644C27.0854 51.5502 27.5356 51.5415 27.9859 51.5307C28.0063 51.5302 28.0268 51.5312 28.0473 51.531C28.3286 51.5291 28.3719 51.4573 28.2585 51.197C28.1053 50.8457 27.9501 50.495 27.8089 50.1388C27.7284 49.9356 27.7859 49.8707 28.0069 49.8682C29.1941 49.8547 30.3823 49.8656 31.5679 49.8159C32.1827 49.7902 32.7984 49.7939 33.4126 49.7532C33.7667 49.7297 33.8611 49.7983 34.0007 50.121C34.1428 50.4496 34.2851 50.7781 34.426 51.1073C34.5134 51.3118 34.4457 51.424 34.2196 51.4312C33.7695 51.4456 33.3192 51.4538 32.8689 51.4612C32.6047 51.4654 32.5807 51.5131 32.6884 51.7464C32.8447 52.085 32.9905 52.429 33.1271 52.7761C33.2172 53.0055 33.124 53.1313 32.8786 53.1394C31.9682 53.1696 31.0578 53.1987 30.1474 53.2282C30.1475 53.2294 30.1476 53.2306 30.1476 53.2319Z" fill="#A7DBEE"/>
<path d="M32.0586 58.9999C31.6645 58.9999 31.2703 58.9988 30.8762 59.0003C30.6235 59.0012 30.5487 58.9464 30.4469 58.7128C30.177 58.0937 29.9042 57.4758 29.6273 56.8598C29.5214 56.624 29.5829 56.5115 29.8469 56.5041C30.6095 56.4828 31.3722 56.4652 32.1349 56.4461C32.186 56.4449 32.2375 56.4465 32.2884 56.4421C32.448 56.4281 32.4888 56.3645 32.426 56.2189C32.2679 55.8525 32.1086 55.4867 31.9461 55.1223C31.847 54.9002 31.928 54.7645 32.1744 54.7546C32.6093 54.7369 33.0445 54.7262 33.4789 54.7025C33.7435 54.688 33.9203 54.7949 34.0239 55.0358C34.1874 55.4166 34.356 55.7952 34.5175 56.1768C34.5911 56.3508 34.5321 56.4386 34.3385 56.4479C33.868 56.4705 33.3974 56.4888 32.9268 56.5087C32.6903 56.5187 32.6655 56.5659 32.7588 56.778C33.0366 57.41 33.3106 58.0438 33.5825 58.6784C33.6538 58.8447 33.6137 58.9206 33.4245 58.933C33.1031 58.9542 32.7802 58.9538 32.458 58.9605C32.3249 58.9633 32.1918 58.961 32.0586 58.961C32.0586 58.974 32.0586 58.9869 32.0586 58.9999Z" fill="#A7DBEE"/>
<path d="M21.1951 51.6771C21.4459 51.6771 21.6966 51.6781 21.9473 51.6768C22.1689 51.6756 22.328 51.7677 22.4232 51.9726C22.5934 52.3388 22.77 52.7022 22.9407 53.0682C23.0298 53.2595 22.9632 53.3822 22.7512 53.3953C22.4245 53.4157 22.0968 53.4214 21.7694 53.4324C21.6518 53.4364 21.5291 53.4172 21.4173 53.4441C21.0078 53.5424 20.8014 53.2858 20.649 52.9885C20.4821 52.6627 20.3557 52.3155 20.2221 51.9735C20.1511 51.7919 20.2105 51.7183 20.4123 51.7158C20.6732 51.7126 20.9341 51.715 21.1951 51.715C21.1951 51.7024 21.1951 51.6897 21.1951 51.6771Z" fill="#A7DBEE"/>
<path d="M26.8292 54.8174C27.0437 54.8174 27.2584 54.823 27.4726 54.8158C27.6866 54.8086 27.8432 54.8992 27.9312 55.0861C28.1226 55.4925 28.3062 55.9028 28.4861 56.3145C28.5691 56.5043 28.4579 56.6429 28.2599 56.628C27.9868 56.6073 27.7129 56.5936 27.4392 56.5884C27.235 56.5846 27.0303 56.595 26.8263 56.6068C26.6588 56.6165 26.5386 56.5552 26.4679 56.4019C26.2777 55.9892 26.0841 55.5782 25.8997 55.1631C25.8232 54.9908 25.9044 54.8647 26.0934 54.8583C26.3384 54.85 26.5839 54.8563 26.8291 54.8563C26.8291 54.8433 26.8292 54.8304 26.8292 54.8174Z" fill="#A7DBEE"/>
<path d="M37.7264 56.3858C37.3911 56.3858 37.0557 56.3905 36.7205 56.3837C36.5686 56.3808 36.4578 56.2841 36.3995 56.1543C36.2219 55.7583 36.0505 55.3593 35.8894 54.9563C35.8159 54.7727 35.95 54.6177 36.1748 54.6077C36.4608 54.595 36.7469 54.5878 37.0329 54.5776C37.1299 54.5742 37.2295 54.5818 37.3234 54.5621C37.5871 54.5071 37.7575 54.6422 37.8563 54.8514C38.004 55.1644 38.1188 55.493 38.246 55.8155C38.2871 55.9198 38.3282 56.0245 38.36 56.1319C38.4052 56.2845 38.3453 56.3723 38.186 56.3804C38.0331 56.3882 37.8796 56.3821 37.7264 56.3821C37.7264 56.3833 37.7264 56.3846 37.7264 56.3858Z" fill="#A7DBEE"/>
</svg>
